<?xml version="1.0" encoding="UTF-8"?>
<svg id="Layer_2" data-name="Layer 2" xmlns="http://www.w3.org/2000/svg" width="102.4785175185mm" height="110.9499017984mm" xmlns:xlink="http://www.w3.org/1999/xlink" viewBox="0 0 290.490290242 314.5036633646">
  <defs>
    <style>
      .cls-1 {
        fill: url(#linear-gradient);
      }

      .cls-2 {
        fill: #00a0cc;
      }

      .cls-3 {
        fill: #151449;
      }
    </style>
    <linearGradient id="linear-gradient" x1="0" y1="169.2585182436" x2="290.490290242" y2="169.2585182436" gradientUnits="userSpaceOnUse">
      <stop offset="0" stop-color="#15489e"/>
      <stop offset=".9997455254" stop-color="#151449"/>
    </linearGradient>
  </defs>
  <g id="Layer_1-2" data-name="Layer 1">
    <g>
      <circle class="cls-1" cx="145.245145121" cy="169.2585182436" r="145.245145121"/>
      <g>
        <path class="cls-2" d="M114.6052762948,192.1904296875c-5.470703125,0-10.177734375-.7817382812-14.1171875-2.3452148438-3.94140625-1.5629882812-6.970703125-3.8251953125-9.0859375-6.7900390625-2.1181640625-2.962890625-3.17578125-6.4633789062-3.17578125-10.5024414062,0-3.908203125,1.0263671875-7.2451171875,3.078125-10.0146484375,2.05078125-2.767578125,5.0458984375-4.8999023438,8.98828125-6.3989257812,3.939453125-1.4975585938,8.7099609375-2.2475585938,14.3125-2.2475585938,5.53515625,0,10.291015625.75,14.2646484375,2.2475585938,3.9716796875,1.4990234375,7.017578125,3.6313476562,9.134765625,6.3989257812,2.1162109375,2.76953125,3.1748046875,6.1064453125,3.1748046875,10.0146484375,0,4.0390625-1.07421875,7.5395507812-3.2236328125,10.5024414062-2.1494140625,2.96484375-5.2119140625,5.2270507812-9.18359375,6.7900390625-3.9736328125,1.5634765625-8.6953125,2.3452148438-14.1669921875,2.3452148438ZM114.6052762948,157.8974609375c-5.080078125,0-9.3955078125-.6840820312-12.9453125-2.0517578125-3.55078125-1.3676757812-6.26953125-3.3369140625-8.1572265625-5.9106445312-1.890625-2.572265625-2.833984375-5.6499023438-2.833984375-9.2329101562,0-3.7763671875.9921875-7.017578125,2.98046875-9.7211914062,1.9853515625-2.7016601562,4.7705078125-4.7705078125,8.3525390625-6.2036132812,3.58203125-1.4321289062,7.783203125-2.1494140625,12.603515625-2.1494140625,4.8193359375,0,9.037109375.7172851562,12.65234375,2.1494140625,3.615234375,1.4331054688,6.431640625,3.501953125,8.451171875,6.2036132812,2.017578125,2.7036132812,3.0283203125,5.9448242188,3.0283203125,9.7211914062,0,3.5830078125-.9443359375,6.6606445312-2.8330078125,9.2329101562-1.8896484375,2.5737304688-4.640625,4.54296875-8.255859375,5.9106445312-3.6142578125,1.3676757812-7.9619140625,2.0517578125-13.04296875,2.0517578125ZM114.6052762948,186.23046875c6.0576171875,0,10.7958984375-1.236328125,14.2158203125-3.7124023438,3.4189453125-2.474609375,5.12890625-5.8286132812,5.12890625-10.0634765625,0-4.2329101562-1.7099609375-7.5712890625-5.12890625-10.0141601562-3.419921875-2.4423828125-8.158203125-3.6635742188-14.2158203125-3.6635742188s-10.7802734375,1.2211914062-14.166015625,3.6635742188c-3.3876953125,2.4428710938-5.0810546875,5.78125-5.0810546875,10.0141601562,0,4.2348632812,1.693359375,7.5888671875,5.0810546875,10.0634765625,3.3857421875,2.4760742188,8.1083984375,3.7124023438,14.166015625,3.7124023438ZM114.6052762948,153.2080078125c5.33984375,0,9.5087890625-1.1069335938,12.505859375-3.3217773438,2.9951171875-2.2133789062,4.494140625-5.1782226562,4.494140625-8.890625,0-3.908203125-1.5478515625-6.9521484375-4.640625-9.1352539062-3.0947265625-2.1811523438-7.21484375-3.2729492188-12.359375-3.2729492188-5.1455078125,0-9.2490234375,1.091796875-12.3095703125,3.2729492188-3.0625,2.1831054688-4.5927734375,5.1948242188-4.5927734375,9.0375976562,0,3.7778320312,1.4814453125,6.7749023438,4.4462890625,8.98828125,2.962890625,2.21484375,7.115234375,3.3217773438,12.4560546875,3.3217773438Z"/>
        <path class="cls-2" d="M149.6785184823,191.6040039062v-4.9829101562l28.4306640625-27.8442382812c2.6044921875-2.5400390625,4.5576171875-4.7705078125,5.861328125-6.6923828125,1.302734375-1.9204101562,2.181640625-3.7280273438,2.638671875-5.4223632812.4541015625-1.6928710938.68359375-3.2880859375.68359375-4.7875976562,0-3.9716796875-1.3525390625-7.0981445312-4.0546875-9.37890625-2.703125-2.279296875-6.6923828125-3.4194335938-11.9677734375-3.4194335938-4.0400390625,0-7.60546875.6196289062-10.6982421875,1.8559570312-3.0947265625,1.23828125-5.7490234375,3.16015625-7.962890625,5.7646484375l-4.982421875-4.298828125c2.669921875-3.1264648438,6.0888671875-5.5356445312,10.2587890625-7.2299804688,4.1669921875-1.6928710938,8.82421875-2.5400390625,13.970703125-2.5400390625,4.6240234375,0,8.6298828125.7329101562,12.0166015625,2.1982421875s6.0087890625,3.599609375,7.865234375,6.3994140625c1.8564453125,2.8012695312,2.7841796875,6.0908203125,2.7841796875,9.8676757812,0,2.21484375-.3095703125,4.396484375-.927734375,6.5458984375-.6201171875,2.1494140625-1.7265625,4.4130859375-3.322265625,6.7900390625-1.5966796875,2.3784179688-3.9248046875,5.0649414062-6.9853515625,8.0600585938l-26.0859375,25.59765625-1.9541015625-2.7358398438h42.40234375v6.2529296875h-47.970703125Z"/>
      </g>
      <g>
        <path class="cls-3" d="M109.6111356698,8.4721679688v-.6118164062l3.4921875-3.4204101562c.3193359375-.3120117188.5595703125-.5859375.7197265625-.8217773438s.267578125-.4580078125.32421875-.666015625.083984375-.4038085938.083984375-.587890625c0-.4877929688-.166015625-.8720703125-.498046875-1.1518554688-.33203125-.2802734375-.822265625-.4204101562-1.4697265625-.4204101562-.49609375,0-.9345703125.076171875-1.3134765625.2280273438-.380859375.15234375-.70703125.3881835938-.978515625.7080078125l-.6123046875-.5278320312c.328125-.3837890625.748046875-.6796875,1.2607421875-.8881835938.51171875-.2080078125,1.083984375-.3120117188,1.71484375-.3120117188.568359375,0,1.060546875.0903320312,1.4765625.2700195312.416015625.1801757812.73828125.4423828125.9658203125.7861328125.2275390625.3442382812.3427734375.748046875.3427734375,1.2119140625,0,.2719726562-.0390625.5400390625-.115234375.8041992188-.076171875.263671875-.2109375.5419921875-.4072265625.833984375s-.4814453125.6220703125-.8583984375.9897460938l-3.203125,3.1440429688-.240234375-.3359375h5.20703125v.7680664062h-5.8916015625Z"/>
        <path class="cls-3" d="M119.9314481698,8.5439453125c-.6474609375,0-1.2236328125-.1694335938-1.7275390625-.509765625-.50390625-.33984375-.900390625-.828125-1.1884765625-1.4638671875-.2880859375-.6362304688-.4326171875-1.4018554688-.4326171875-2.2983398438,0-.8955078125.14453125-1.6616210938.4326171875-2.2978515625.2880859375-.6357421875.6845703125-1.1240234375,1.1884765625-1.4638671875s1.080078125-.5102539062,1.7275390625-.5102539062,1.2236328125.1704101562,1.7275390625.5102539062.90234375.828125,1.1943359375,1.4638671875c.2919921875.6362304688.4384765625,1.40234375.4384765625,2.2978515625,0,.896484375-.146484375,1.662109375-.4384765625,2.2983398438-.2919921875.6357421875-.6904296875,1.1240234375-1.1943359375,1.4638671875-.50390625.3403320312-1.080078125.509765625-1.7275390625.509765625ZM119.9314481698,7.751953125c.4951171875,0,.927734375-.1337890625,1.2958984375-.4018554688.3671875-.2680664062.65625-.66015625.86328125-1.17578125.208984375-.5161132812.3125-1.1499023438.3125-1.90234375,0-.7514648438-.103515625-1.3857421875-.3125-1.9018554688-.20703125-.5161132812-.49609375-.9077148438-.86328125-1.17578125-.3681640625-.2680664062-.80078125-.40234375-1.2958984375-.40234375-.4794921875,0-.908203125.1342773438-1.2841796875.40234375s-.66796875.6596679688-.8759765625,1.17578125-.3115234375,1.150390625-.3115234375,1.9018554688c0,.7524414062.103515625,1.3862304688.3115234375,1.90234375.2080078125.515625.5.9077148438.8759765625,1.17578125s.8046875.4018554688,1.2841796875.4018554688Z"/>
        <path class="cls-3" d="M125.9910184823,8.4721679688V.4321289062l.384765625.408203125h-2.365234375V.072265625h2.8447265625v8.3999023438h-.8642578125Z"/>
        <path class="cls-3" d="M131.5105497323,8.5439453125c-.599609375,0-1.171875-.09765625-1.71484375-.2939453125-.544921875-.1958007812-.9765625-.4575195312-1.296875-.7856445312l.419921875-.6840820312c.2646484375.2797851562.626953125.51171875,1.0859375.6958007812.4609375.1840820312.958984375.2758789062,1.494140625.2758789062.712890625,0,1.25390625-.1577148438,1.626953125-.4736328125.37109375-.3159179688.5576171875-.7299804688.5576171875-1.2421875,0-.3598632812-.0869140625-.669921875-.2587890625-.9301757812-.171875-.259765625-.4609375-.4619140625-.869140625-.6059570312s-.96875-.2158203125-1.6796875-.2158203125h-1.7890625l.4326171875-4.2119140625h4.595703125v.7680664062h-4.248046875l.4443359375-.419921875-.3720703125,3.5278320312-.4443359375-.4321289062h1.572265625c.84765625,0,1.52734375.1040039062,2.0400390625.3120117188.51171875.2080078125.8818359375.498046875,1.1103515625.8701171875.2275390625.3720703125.341796875.8061523438.341796875,1.3017578125,0,.4721679688-.1123046875.90234375-.3359375,1.2900390625-.224609375.3881835938-.560546875.6943359375-1.0078125.91796875-.44921875.2241210938-1.0166015625.3359375-1.705078125.3359375Z"/>
        <path class="cls-3" d="M135.7468778573,5.5922851562v-.744140625h3.14453125v.744140625h-3.14453125Z"/>
        <path class="cls-3" d="M140.0789091073,8.4721679688v-.6118164062l3.4921875-3.4204101562c.3193359375-.3120117188.5595703125-.5859375.7197265625-.8217773438.1591796875-.2358398438.267578125-.4580078125.3232421875-.666015625.056640625-.2080078125.083984375-.4038085938.083984375-.587890625,0-.4877929688-.166015625-.8720703125-.498046875-1.1518554688-.33203125-.2802734375-.8212890625-.4204101562-1.46875-.4204101562-.49609375,0-.9345703125.076171875-1.314453125.2280273438-.380859375.15234375-.7060546875.3881835938-.978515625.7080078125l-.611328125-.5278320312c.328125-.3837890625.748046875-.6796875,1.259765625-.8881835938.51171875-.2080078125,1.083984375-.3120117188,1.7158203125-.3120117188.5673828125,0,1.0595703125.0903320312,1.4755859375.2700195312.416015625.1801757812.73828125.4423828125.966796875.7861328125.2275390625.3442382812.341796875.748046875.341796875,1.2119140625,0,.2719726562-.0380859375.5400390625-.1142578125.8041992188-.076171875.263671875-.2119140625.5419921875-.4072265625.833984375-.197265625.2919921875-.482421875.6220703125-.8583984375.9897460938l-3.2041015625,3.1440429688-.240234375-.3359375h5.2080078125v.7680664062h-5.8916015625Z"/>
        <path class="cls-3" d="M150.3992216073,8.5439453125c-.6484375,0-1.224609375-.1694335938-1.728515625-.509765625-.50390625-.33984375-.900390625-.828125-1.1875-1.4638671875-.2890625-.6362304688-.4326171875-1.4018554688-.4326171875-2.2983398438,0-.8955078125.1435546875-1.6616210938.4326171875-2.2978515625.287109375-.6357421875.68359375-1.1240234375,1.1875-1.4638671875s1.080078125-.5102539062,1.728515625-.5102539062c.6474609375,0,1.22265625.1704101562,1.7275390625.5102539062.50390625.33984375.9013671875.828125,1.1943359375,1.4638671875.291015625.6362304688.4375,1.40234375.4375,2.2978515625,0,.896484375-.146484375,1.662109375-.4375,2.2983398438-.29296875.6357421875-.6904296875,1.1240234375-1.1943359375,1.4638671875-.5048828125.3403320312-1.080078125.509765625-1.7275390625.509765625ZM150.3992216073,7.751953125c.4951171875,0,.927734375-.1337890625,1.294921875-.4018554688.3681640625-.2680664062.65625-.66015625.8642578125-1.17578125.2080078125-.5161132812.3115234375-1.1499023438.3115234375-1.90234375,0-.7514648438-.103515625-1.3857421875-.3115234375-1.9018554688s-.49609375-.9077148438-.8642578125-1.17578125c-.3671875-.2680664062-.7998046875-.40234375-1.294921875-.40234375-.48046875,0-.908203125.1342773438-1.28515625.40234375-.375.2680664062-.66796875.6596679688-.875,1.17578125-.208984375.5161132812-.3125,1.150390625-.3125,1.9018554688,0,.7524414062.103515625,1.3862304688.3125,1.90234375.20703125.515625.5.9077148438.875,1.17578125.376953125.2680664062.8046875.4018554688,1.28515625.4018554688Z"/>
        <path class="cls-3" d="M156.4578153573,8.4721679688V.4321289062l.384765625.408203125h-2.3642578125V.072265625h2.8447265625v8.3999023438h-.865234375Z"/>
        <path class="cls-3" d="M161.9421903573,0c.744140625,0,1.3720703125.1665039062,1.884765625.498046875.51171875.33203125.8994140625.8100585938,1.1640625,1.4340820312.263671875.6240234375.3955078125,1.3798828125.3955078125,2.2680664062,0,.9438476562-.162109375,1.7397460938-.4853515625,2.3881835938-.32421875.6479492188-.775390625,1.1357421875-1.3505859375,1.4638671875-.576171875.328125-1.244140625.4916992188-2.00390625.4916992188-.3759765625,0-.734375-.0356445312-1.07421875-.1079101562-.3408203125-.0717773438-.6455078125-.1875-.91796875-.34765625l.3486328125-.6962890625c.21484375.1440429688.46484375.24609375.75.3061523438.283203125.0600585938.5771484375.08984375.880859375.08984375.904296875,0,1.626953125-.2880859375,2.166015625-.8637695312.541015625-.576171875.810546875-1.4360351562.810546875-2.580078125,0-.1840820312-.009765625-.4038085938-.0302734375-.66015625-.0205078125-.255859375-.0654296875-.51171875-.1376953125-.7680664062l.2998046875.2280273438c-.080078125.416015625-.25.7700195312-.509765625,1.0620117188-.2607421875.2924804688-.580078125.5141601562-.9599609375.666015625-.380859375.15234375-.802734375.2280273438-1.265625.2280273438-.552734375,0-1.04296875-.1040039062-1.470703125-.3120117188s-.76171875-.5-1.001953125-.8759765625-.359375-.8198242188-.359375-1.33203125c0-.5278320312.123046875-.9838867188.37109375-1.3676757812.248046875-.3842773438.58984375-.6821289062,1.0263671875-.8940429688s.92578125-.318359375,1.4697265625-.318359375ZM161.9783231698.7319335938c-.3994140625,0-.75390625.07421875-1.0615234375.2221679688-.30859375.1479492188-.55078125.3583984375-.7265625.6298828125-.17578125.2724609375-.263671875.5961914062-.263671875.9721679688,0,.5522460938.189453125.9921875.5703125,1.3198242188.37890625.328125.8935546875.4921875,1.541015625.4921875.4326171875,0,.810546875-.080078125,1.134765625-.240234375.32421875-.1596679688.576171875-.3793945312.755859375-.6596679688s.26953125-.591796875.26953125-.9360351562c0-.3120117188-.083984375-.6040039062-.251953125-.8759765625s-.416015625-.494140625-.744140625-.666015625-.736328125-.2583007812-1.2236328125-.2583007812Z"/>
      </g>
    </g>
  </g>
</svg>