<?xml version="1.0" encoding="UTF-8"?>
<svg id="Layer_2" data-name="Layer 2" xmlns="http://www.w3.org/2000/svg" width="124.6148418027mm" height="49.9921587045mm" viewBox="0 0 353.2389269505 141.7100582984">
  <defs>
    <style>
      .cls-1 {
        opacity: .4;
      }

      .cls-1, .cls-2 {
        fill: #00a0cc;
      }

      .cls-3 {
        fill: #151449;
      }
    </style>
  </defs>
  <g id="Layer_1-2" data-name="Layer 1">
    <g>
      <circle class="cls-1" cx="303.6430237385" cy="85.0290260561" r="49.5959032121"/>
      <circle class="cls-1" cx="128.5711259792" cy="85.0290260561" r="56.6810322423"/>
      <circle class="cls-1" cx="38.9682096666" cy="85.0290260561" r="38.9682096666"/>
      <circle class="cls-1" cx="218.9065211154" cy="85.0290260561" r="40.7394919242"/>
      <g>
        <path class="cls-2" d="M282.2326121887,96.8090820312v-1.9360351562l11.046875-10.8193359375c1.0126953125-.9873046875,1.771484375-1.8540039062,2.2783203125-2.6005859375.505859375-.74609375.84765625-1.4487304688,1.0244140625-2.1069335938.1767578125-.6577148438.2666015625-1.2778320312.2666015625-1.8603515625,0-1.5434570312-.5263671875-2.7583007812-1.576171875-3.64453125-1.0498046875-.8852539062-2.6005859375-1.3286132812-4.650390625-1.3286132812-1.5693359375,0-2.955078125.2407226562-4.15625.7211914062-1.203125.4814453125-2.234375,1.2280273438-3.0947265625,2.240234375l-1.935546875-1.6704101562c1.037109375-1.21484375,2.3662109375-2.1508789062,3.986328125-2.8095703125,1.619140625-.6577148438,3.4287109375-.9868164062,5.427734375-.9868164062,1.796875,0,3.353515625.2846679688,4.669921875.8540039062,1.3154296875.5693359375,2.3349609375,1.3989257812,3.0556640625,2.4868164062.7216796875,1.0883789062,1.08203125,2.3666992188,1.08203125,3.833984375,0,.8608398438-.1201171875,1.7084960938-.3603515625,2.5434570312-.2412109375.8354492188-.6708984375,1.71484375-1.291015625,2.638671875-.6201171875.9243164062-1.5244140625,1.9682617188-2.7138671875,3.1318359375l-10.13671875,9.9462890625-.7587890625-1.0629882812h16.4755859375v2.4296875h-18.6396484375Z"/>
        <path class="cls-2" d="M314.3869090637,97.0366210938c-2.1259765625,0-3.955078125-.3032226562-5.4853515625-.9106445312-1.5322265625-.607421875-2.708984375-1.4868164062-3.53125-2.638671875-.822265625-1.1513671875-1.2333984375-2.5112304688-1.2333984375-4.0810546875,0-1.5185546875.3984375-2.8149414062,1.1953125-3.8911132812.7978515625-1.0756835938,1.9619140625-1.904296875,3.4931640625-2.4868164062,1.53125-.5815429688,3.384765625-.873046875,5.5615234375-.873046875,2.150390625,0,3.998046875.2915039062,5.54296875.873046875,1.54296875.5825195312,2.7265625,1.4111328125,3.548828125,2.4868164062.822265625,1.076171875,1.234375,2.3725585938,1.234375,3.8911132812,0,1.5698242188-.41796875,2.9296875-1.2529296875,4.0810546875-.8349609375,1.1518554688-2.025390625,2.03125-3.568359375,2.638671875-1.5439453125.607421875-3.37890625.9106445312-5.5048828125.9106445312ZM314.3869090637,83.7119140625c-1.974609375,0-3.6513671875-.265625-5.0302734375-.7973632812-1.3798828125-.53125-2.435546875-1.2963867188-3.169921875-2.296875-.734375-.9995117188-1.1005859375-2.1953125-1.1005859375-3.5874023438,0-1.4672851562.3857421875-2.7265625,1.1572265625-3.77734375.7724609375-1.0498046875,1.8544921875-1.853515625,3.24609375-2.4106445312,1.3916015625-.5561523438,3.0244140625-.8349609375,4.8974609375-.8349609375s3.51171875.2788085938,4.916015625.8349609375c1.404296875.5571289062,2.4990234375,1.3608398438,3.2841796875,2.4106445312.7841796875,1.05078125,1.1767578125,2.3100585938,1.1767578125,3.77734375,0,1.3920898438-.3671875,2.587890625-1.1015625,3.5874023438-.7333984375,1.0004882812-1.802734375,1.765625-3.20703125,2.296875-1.4052734375.5317382812-3.0947265625.7973632812-5.068359375.7973632812ZM314.3869090637,94.7211914062c2.353515625,0,4.1953125-.48046875,5.5234375-1.4428710938,1.3291015625-.9614257812,1.9931640625-2.2646484375,1.9931640625-3.91015625,0-1.64453125-.6640625-2.9418945312-1.9931640625-3.8911132812-1.328125-.9487304688-3.169921875-1.4233398438-5.5234375-1.4233398438s-4.189453125.474609375-5.5048828125,1.4233398438c-1.31640625.94921875-1.9736328125,2.2465820312-1.9736328125,3.8911132812,0,1.6455078125.6572265625,2.9487304688,1.9736328125,3.91015625,1.3154296875.9624023438,3.1513671875,1.4428710938,5.5048828125,1.4428710938ZM314.3869090637,81.8896484375c2.0751953125,0,3.6943359375-.4301757812,4.859375-1.2905273438,1.1640625-.8603515625,1.74609375-2.0122070312,1.74609375-3.4545898438,0-1.5185546875-.6015625-2.7016601562-1.802734375-3.5498046875-1.203125-.84765625-2.8037109375-1.2719726562-4.802734375-1.2719726562-2,0-3.59375.4243164062-4.783203125,1.2719726562-1.1904296875.8481445312-1.7841796875,2.0185546875-1.7841796875,3.51171875,0,1.4677734375.5751953125,2.6323242188,1.7275390625,3.4926757812,1.150390625.8603515625,2.7646484375,1.2905273438,4.83984375,1.2905273438Z"/>
      </g>
      <g>
        <path class="cls-2" d="M116.9928660949,97.0366210938c-1.923828125,0-3.7392578125-.3095703125-5.447265625-.9296875-1.708984375-.6201171875-3.08203125-1.4487304688-4.119140625-2.4868164062l1.328125-2.1635742188c.8603515625.8857421875,2.0185546875,1.6196289062,3.4736328125,2.2016601562,1.455078125.5825195312,3.04296875.873046875,4.7646484375.873046875,2.2021484375,0,3.8916015625-.48046875,5.068359375-1.4423828125s1.7646484375-2.2524414062,1.7646484375-3.8725585938c0-1.619140625-.5751953125-2.9096679688-1.7265625-3.8720703125-1.15234375-.9614257812-2.9677734375-1.4423828125-5.4482421875-1.4423828125h-1.8974609375v-2.0122070312l8.19921875-10.2880859375.3798828125,1.0629882812h-14.8056640625v-2.4296875h17.083984375v1.9365234375l-8.2001953125,10.2875976562-1.3291015625-.873046875h1.025390625c3.1884765625,0,5.57421875.708984375,7.1552734375,2.1259765625,1.58203125,1.4174804688,2.373046875,3.2397460938,2.373046875,5.466796875,0,1.4936523438-.3544921875,2.8344726562-1.0625,4.0239257812-.708984375,1.1899414062-1.7783203125,2.1259765625-3.2080078125,2.8090820312-1.4306640625.68359375-3.220703125,1.0249023438-5.3720703125,1.0249023438Z"/>
        <path class="cls-2" d="M129.9762645324,96.8090820312v-1.9360351562l11.046875-10.8193359375c1.0126953125-.9873046875,1.771484375-1.8540039062,2.2783203125-2.6005859375.505859375-.74609375.84765625-1.4487304688,1.0244140625-2.1069335938.1767578125-.6577148438.2666015625-1.2778320312.2666015625-1.8603515625,0-1.5434570312-.5263671875-2.7583007812-1.576171875-3.64453125-1.0498046875-.8852539062-2.6005859375-1.3286132812-4.650390625-1.3286132812-1.5693359375,0-2.955078125.2407226562-4.15625.7211914062-1.203125.4814453125-2.234375,1.2280273438-3.0947265625,2.240234375l-1.935546875-1.6704101562c1.037109375-1.21484375,2.3662109375-2.1508789062,3.986328125-2.8095703125,1.619140625-.6577148438,3.4287109375-.9868164062,5.427734375-.9868164062,1.796875,0,3.353515625.2846679688,4.669921875.8540039062,1.3154296875.5693359375,2.3349609375,1.3989257812,3.0556640625,2.4868164062.7216796875,1.0883789062,1.08203125,2.3666992188,1.08203125,3.833984375,0,.8608398438-.1201171875,1.7084960938-.3603515625,2.5434570312-.2412109375.8354492188-.6708984375,1.71484375-1.291015625,2.638671875-.6201171875.9243164062-1.5244140625,1.9682617188-2.7138671875,3.1318359375l-10.13671875,9.9462890625-.7587890625-1.0629882812h16.4755859375v2.4296875h-18.6396484375Z"/>
      </g>
      <g>
        <path class="cls-2" d="M202.0421825012,93.974609375v-1.6318359375l9.3115234375-9.1201171875c.853515625-.83203125,1.4931640625-1.5625,1.9208984375-2.1918945312.42578125-.6293945312.7138671875-1.2211914062.86328125-1.7763671875.1494140625-.5541992188.224609375-1.0766601562.224609375-1.5678710938,0-1.30078125-.443359375-2.3247070312-1.328125-3.0717773438-.8857421875-.7465820312-2.1923828125-1.1201171875-3.919921875-1.1201171875-1.3232421875,0-2.4912109375.203125-3.50390625.6079101562-1.013671875.4057617188-1.8837890625,1.03515625-2.6083984375,1.8881835938l-1.6318359375-1.408203125c.8740234375-1.0239257812,1.994140625-1.8129882812,3.359375-2.3676757812s2.890625-.83203125,4.576171875-.83203125c1.5146484375,0,2.8271484375.2397460938,3.9365234375.7197265625,1.1083984375.4799804688,1.9677734375,1.1791992188,2.576171875,2.0961914062.607421875.9174804688.9111328125,1.9951171875.9111328125,3.2319335938,0,.7255859375-.1005859375,1.4399414062-.3037109375,2.1440429688s-.5654296875,1.4453125-1.087890625,2.2241210938-1.28515625,1.6586914062-2.2880859375,2.6396484375l-8.5439453125,8.3842773438-.6396484375-.8959960938h13.8876953125v2.0478515625h-15.7119140625Z"/>
        <path class="cls-2" d="M227.3214793762,94.1665039062c-1.62109375,0-3.1513671875-.2607421875-4.591796875-.7836914062-1.439453125-.5224609375-2.59765625-1.2211914062-3.4716796875-2.0961914062l1.1201171875-1.82421875c.724609375.7470703125,1.701171875,1.3657226562,2.927734375,1.8564453125s2.5654296875.7358398438,4.015625.7358398438c1.8564453125,0,3.2802734375-.4052734375,4.2724609375-1.2163085938.9921875-.8100585938,1.48828125-1.8984375,1.48828125-3.263671875s-.4853515625-2.453125-1.4560546875-3.2641601562c-.9716796875-.810546875-2.501953125-1.2158203125-4.591796875-1.2158203125h-1.6005859375v-1.6962890625l6.912109375-8.671875.3203125.8959960938h-12.48046875v-2.0478515625h14.400390625v1.6318359375l-6.912109375,8.671875-1.1201171875-.7358398438h.8642578125c2.6875,0,4.6982421875.59765625,6.0322265625,1.7919921875,1.3330078125,1.1948242188,2,2.7309570312,2,4.6079101562,0,1.2592773438-.2998046875,2.3896484375-.896484375,3.3920898438-.59765625,1.0029296875-1.4990234375,1.7919921875-2.7041015625,2.3681640625-1.205078125.5756835938-2.71484375.8637695312-4.5283203125.8637695312Z"/>
      </g>
      <g>
        <path class="cls-2" d="M22.0402293762,93.974609375v-1.6318359375l9.3115234375-9.1201171875c.853515625-.83203125,1.4931640625-1.5625,1.9208984375-2.1918945312.42578125-.6293945312.7138671875-1.2211914062.86328125-1.7763671875.1494140625-.5541992188.224609375-1.0766601562.224609375-1.5678710938,0-1.30078125-.443359375-2.3247070312-1.328125-3.0717773438-.8857421875-.7465820312-2.1923828125-1.1201171875-3.919921875-1.1201171875-1.3232421875,0-2.4912109375.203125-3.50390625.6079101562-1.013671875.4057617188-1.8837890625,1.03515625-2.6083984375,1.8881835938l-1.6318359375-1.408203125c.8740234375-1.0239257812,1.994140625-1.8129882812,3.359375-2.3676757812s2.890625-.83203125,4.576171875-.83203125c1.5146484375,0,2.8271484375.2397460938,3.9365234375.7197265625,1.1083984375.4799804688,1.9677734375,1.1791992188,2.576171875,2.0961914062.607421875.9174804688.9111328125,1.9951171875.9111328125,3.2319335938,0,.7255859375-.1005859375,1.4399414062-.3037109375,2.1440429688s-.5654296875,1.4453125-1.087890625,2.2241210938-1.28515625,1.6586914062-2.2880859375,2.6396484375l-8.5439453125,8.3842773438-.6396484375-.8959960938h13.8876953125v2.0478515625h-15.7119140625Z"/>
        <path class="cls-2" d="M40.2160106262,93.974609375v-1.6318359375l9.3115234375-9.1201171875c.853515625-.83203125,1.4931640625-1.5625,1.9208984375-2.1918945312.42578125-.6293945312.7138671875-1.2211914062.86328125-1.7763671875.1494140625-.5541992188.224609375-1.0766601562.224609375-1.5678710938,0-1.30078125-.443359375-2.3247070312-1.328125-3.0717773438-.8857421875-.7465820312-2.1923828125-1.1201171875-3.919921875-1.1201171875-1.3232421875,0-2.4912109375.203125-3.50390625.6079101562-1.013671875.4057617188-1.8837890625,1.03515625-2.6083984375,1.8881835938l-1.6318359375-1.408203125c.8740234375-1.0239257812,1.994140625-1.8129882812,3.359375-2.3676757812s2.890625-.83203125,4.576171875-.83203125c1.5146484375,0,2.8271484375.2397460938,3.9365234375.7197265625,1.1083984375.4799804688,1.9677734375,1.1791992188,2.576171875,2.0961914062.607421875.9174804688.9111328125,1.9951171875.9111328125,3.2319335938,0,.7255859375-.1005859375,1.4399414062-.3037109375,2.1440429688s-.5654296875,1.4453125-1.087890625,2.2241210938-1.28515625,1.6586914062-2.2880859375,2.6396484375l-8.5439453125,8.3842773438-.6396484375-.8959960938h13.8876953125v2.0478515625h-15.7119140625Z"/>
      </g>
      <g>
        <path class="cls-3" d="M96.1051707824,8.4721679688v-.6118164062l3.4921875-3.4204101562c.3198242188-.3120117188.5600585938-.5859375.7202148438-.8217773438.1596679688-.2358398438.267578125-.4580078125.3237304688-.666015625s.083984375-.4038085938.083984375-.587890625c0-.4877929688-.166015625-.8720703125-.498046875-1.1518554688-.33203125-.2802734375-.8217773438-.4204101562-1.4697265625-.4204101562-.49609375,0-.9340820312.076171875-1.3139648438.2280273438-.3803710938.15234375-.7060546875.3881835938-.9780273438.7080078125l-.6123046875-.5278320312c.328125-.3837890625.748046875-.6796875,1.2602539062-.8881835938.51171875-.2080078125,1.083984375-.3120117188,1.7158203125-.3120117188.5678710938,0,1.0600585938.0903320312,1.4760742188.2700195312.416015625.1801757812.7377929688.4423828125.9658203125.7861328125.2280273438.3442382812.3422851562.748046875.3422851562,1.2119140625,0,.2719726562-.0380859375.5400390625-.1142578125.8041992188-.076171875.263671875-.2119140625.5419921875-.4077148438.833984375-.1962890625.2919921875-.4819335938.6220703125-.8579101562.9897460938l-3.2041015625,3.1440429688-.240234375-.3359375h5.2080078125v.7680664062h-5.8920898438Z"/>
        <path class="cls-3" d="M106.4254832824,8.5439453125c-.6479492188,0-1.2241210938-.1694335938-1.7280273438-.509765625-.50390625-.33984375-.8999023438-.828125-1.1879882812-1.4638671875-.2880859375-.6362304688-.4321289062-1.4018554688-.4321289062-2.2983398438,0-.8955078125.1440429688-1.6616210938.4321289062-2.2978515625.2880859375-.6357421875.6840820312-1.1240234375,1.1879882812-1.4638671875s1.080078125-.5102539062,1.7280273438-.5102539062,1.2236328125.1704101562,1.7280273438.5102539062c.50390625.33984375.9018554688.828125,1.1938476562,1.4638671875.2919921875.6362304688.4379882812,1.40234375.4379882812,2.2978515625,0,.896484375-.1459960938,1.662109375-.4379882812,2.2983398438-.2919921875.6357421875-.6899414062,1.1240234375-1.1938476562,1.4638671875-.5043945312.3403320312-1.080078125.509765625-1.7280273438.509765625ZM106.4254832824,7.751953125c.4956054688,0,.927734375-.1337890625,1.2958984375-.4018554688.3676757812-.2680664062.6557617188-.66015625.8637695312-1.17578125.2080078125-.5161132812.3120117188-1.1499023438.3120117188-1.90234375,0-.7514648438-.1040039062-1.3857421875-.3120117188-1.9018554688s-.49609375-.9077148438-.8637695312-1.17578125c-.3681640625-.2680664062-.8002929688-.40234375-1.2958984375-.40234375-.4799804688,0-.908203125.1342773438-1.2841796875.40234375s-.66796875.6596679688-.8759765625,1.17578125-.3120117188,1.150390625-.3120117188,1.9018554688c0,.7524414062.1040039062,1.3862304688.3120117188,1.90234375.2080078125.515625.5.9077148438.8759765625,1.17578125s.8041992188.4018554688,1.2841796875.4018554688Z"/>
        <path class="cls-3" d="M114.3693309387,8.5439453125c-.6479492188,0-1.2241210938-.1694335938-1.7280273438-.509765625-.50390625-.33984375-.8999023438-.828125-1.1879882812-1.4638671875-.2880859375-.6362304688-.4321289062-1.4018554688-.4321289062-2.2983398438,0-.8955078125.1440429688-1.6616210938.4321289062-2.2978515625.2880859375-.6357421875.6840820312-1.1240234375,1.1879882812-1.4638671875s1.080078125-.5102539062,1.7280273438-.5102539062,1.2236328125.1704101562,1.7280273438.5102539062c.50390625.33984375.9018554688.828125,1.1938476562,1.4638671875.2919921875.6362304688.4379882812,1.40234375.4379882812,2.2978515625,0,.896484375-.1459960938,1.662109375-.4379882812,2.2983398438-.2919921875.6357421875-.6899414062,1.1240234375-1.1938476562,1.4638671875-.5043945312.3403320312-1.080078125.509765625-1.7280273438.509765625ZM114.3693309387,7.751953125c.4956054688,0,.927734375-.1337890625,1.2958984375-.4018554688.3676757812-.2680664062.6557617188-.66015625.8637695312-1.17578125.2080078125-.5161132812.3120117188-1.1499023438.3120117188-1.90234375,0-.7514648438-.1040039062-1.3857421875-.3120117188-1.9018554688s-.49609375-.9077148438-.8637695312-1.17578125c-.3681640625-.2680664062-.8002929688-.40234375-1.2958984375-.40234375-.4799804688,0-.908203125.1342773438-1.2841796875.40234375s-.66796875.6596679688-.8759765625,1.17578125-.3120117188,1.150390625-.3120117188,1.9018554688c0,.7524414062.1040039062,1.3862304688.3120117188,1.90234375.2080078125.515625.5.9077148438.8759765625,1.17578125s.8041992188.4018554688,1.2841796875.4018554688Z"/>
        <path class="cls-3" d="M122.3131785949,8.5439453125c-.6479492188,0-1.2241210938-.1694335938-1.7280273438-.509765625-.50390625-.33984375-.8999023438-.828125-1.1879882812-1.4638671875-.2880859375-.6362304688-.4321289062-1.4018554688-.4321289062-2.2983398438,0-.8955078125.1440429688-1.6616210938.4321289062-2.2978515625.2880859375-.6357421875.6840820312-1.1240234375,1.1879882812-1.4638671875s1.080078125-.5102539062,1.7280273438-.5102539062,1.2236328125.1704101562,1.7280273438.5102539062c.50390625.33984375.9018554688.828125,1.1938476562,1.4638671875.2919921875.6362304688.4379882812,1.40234375.4379882812,2.2978515625,0,.896484375-.1459960938,1.662109375-.4379882812,2.2983398438-.2919921875.6357421875-.6899414062,1.1240234375-1.1938476562,1.4638671875-.5043945312.3403320312-1.080078125.509765625-1.7280273438.509765625ZM122.3131785949,7.751953125c.4956054688,0,.927734375-.1337890625,1.2958984375-.4018554688.3676757812-.2680664062.6557617188-.66015625.8637695312-1.17578125.2080078125-.5161132812.3120117188-1.1499023438.3120117188-1.90234375,0-.7514648438-.1040039062-1.3857421875-.3120117188-1.9018554688s-.49609375-.9077148438-.8637695312-1.17578125c-.3681640625-.2680664062-.8002929688-.40234375-1.2958984375-.40234375-.4799804688,0-.908203125.1342773438-1.2841796875.40234375s-.66796875.6596679688-.8759765625,1.17578125-.3120117188,1.150390625-.3120117188,1.9018554688c0,.7524414062.1040039062,1.3862304688.3120117188,1.90234375.2080078125.515625.5.9077148438.8759765625,1.17578125s.8041992188.4018554688,1.2841796875.4018554688Z"/>
        <path class="cls-3" d="M127.0050731262,5.5922851562v-.744140625h3.1435546875v.744140625h-3.1435546875Z"/>
        <path class="cls-3" d="M131.3366160949,8.4721679688v-.6118164062l3.4921875-3.4204101562c.3198242188-.3120117188.5600585938-.5859375.7202148438-.8217773438.1596679688-.2358398438.267578125-.4580078125.3237304688-.666015625s.083984375-.4038085938.083984375-.587890625c0-.4877929688-.166015625-.8720703125-.498046875-1.1518554688-.33203125-.2802734375-.8217773438-.4204101562-1.4697265625-.4204101562-.49609375,0-.9340820312.076171875-1.3139648438.2280273438-.3803710938.15234375-.7060546875.3881835938-.9780273438.7080078125l-.6123046875-.5278320312c.328125-.3837890625.748046875-.6796875,1.2602539062-.8881835938.51171875-.2080078125,1.083984375-.3120117188,1.7158203125-.3120117188.5678710938,0,1.0600585938.0903320312,1.4760742188.2700195312.416015625.1801757812.7377929688.4423828125.9658203125.7861328125.2280273438.3442382812.3422851562.748046875.3422851562,1.2119140625,0,.2719726562-.0380859375.5400390625-.1142578125.8041992188-.076171875.263671875-.2119140625.5419921875-.4077148438.833984375-.1962890625.2919921875-.4819335938.6220703125-.8579101562.9897460938l-3.2041015625,3.1440429688-.240234375-.3359375h5.2080078125v.7680664062h-5.8920898438Z"/>
        <path class="cls-3" d="M141.6569285949,8.5439453125c-.6479492188,0-1.2241210938-.1694335938-1.7280273438-.509765625-.50390625-.33984375-.8999023438-.828125-1.1879882812-1.4638671875-.2880859375-.6362304688-.4321289062-1.4018554688-.4321289062-2.2983398438,0-.8955078125.1440429688-1.6616210938.4321289062-2.2978515625.2880859375-.6357421875.6840820312-1.1240234375,1.1879882812-1.4638671875s1.080078125-.5102539062,1.7280273438-.5102539062,1.2236328125.1704101562,1.7280273438.5102539062c.50390625.33984375.9018554688.828125,1.1938476562,1.4638671875.2919921875.6362304688.4379882812,1.40234375.4379882812,2.2978515625,0,.896484375-.1459960938,1.662109375-.4379882812,2.2983398438-.2919921875.6357421875-.6899414062,1.1240234375-1.1938476562,1.4638671875-.5043945312.3403320312-1.080078125.509765625-1.7280273438.509765625ZM141.6569285949,7.751953125c.4956054688,0,.927734375-.1337890625,1.2958984375-.4018554688.3676757812-.2680664062.6557617188-.66015625.8637695312-1.17578125.2080078125-.5161132812.3120117188-1.1499023438.3120117188-1.90234375,0-.7514648438-.1040039062-1.3857421875-.3120117188-1.9018554688s-.49609375-.9077148438-.8637695312-1.17578125c-.3681640625-.2680664062-.8002929688-.40234375-1.2958984375-.40234375-.4799804688,0-.908203125.1342773438-1.2841796875.40234375s-.66796875.6596679688-.8759765625,1.17578125-.3120117188,1.150390625-.3120117188,1.9018554688c0,.7524414062.1040039062,1.3862304688.3120117188,1.90234375.2080078125.515625.5.9077148438.8759765625,1.17578125s.8041992188.4018554688,1.2841796875.4018554688Z"/>
        <path class="cls-3" d="M149.6007762512,8.5439453125c-.6479492188,0-1.2241210938-.1694335938-1.7280273438-.509765625-.50390625-.33984375-.8999023438-.828125-1.1879882812-1.4638671875-.2880859375-.6362304688-.4321289062-1.4018554688-.4321289062-2.2983398438,0-.8955078125.1440429688-1.6616210938.4321289062-2.2978515625.2880859375-.6357421875.6840820312-1.1240234375,1.1879882812-1.4638671875s1.080078125-.5102539062,1.7280273438-.5102539062,1.2236328125.1704101562,1.7280273438.5102539062c.50390625.33984375.9018554688.828125,1.1938476562,1.4638671875.2919921875.6362304688.4379882812,1.40234375.4379882812,2.2978515625,0,.896484375-.1459960938,1.662109375-.4379882812,2.2983398438-.2919921875.6357421875-.6899414062,1.1240234375-1.1938476562,1.4638671875-.5043945312.3403320312-1.080078125.509765625-1.7280273438.509765625ZM149.6007762512,7.751953125c.4956054688,0,.927734375-.1337890625,1.2958984375-.4018554688.3676757812-.2680664062.6557617188-.66015625.8637695312-1.17578125.2080078125-.5161132812.3120117188-1.1499023438.3120117188-1.90234375,0-.7514648438-.1040039062-1.3857421875-.3120117188-1.9018554688s-.49609375-.9077148438-.8637695312-1.17578125c-.3681640625-.2680664062-.8002929688-.40234375-1.2958984375-.40234375-.4799804688,0-.908203125.1342773438-1.2841796875.40234375s-.66796875.6596679688-.8759765625,1.17578125-.3120117188,1.150390625-.3120117188,1.9018554688c0,.7524414062.1040039062,1.3862304688.3120117188,1.90234375.2080078125.515625.5.9077148438.8759765625,1.17578125s.8041992188.4018554688,1.2841796875.4018554688Z"/>
        <path class="cls-3" d="M154.0524364074,6.2641601562v-.6240234375L158.5045848449.072265625h.9599609375l-4.416015625,5.5678710938-.4682617188-.1440429688h6.7563476562v.7680664062h-7.2841796875ZM158.7926707824,8.4721679688v-2.2080078125l.0239257812-.7680664062v-1.9438476562h.83984375v4.919921875h-.8637695312Z"/>
      </g>
      <g>
        <path class="cls-3" d="M187.3292918762,8.4721679688v-.6118164062l3.4921875-3.4204101562c.3198242188-.3120117188.5600585938-.5859375.7202148438-.8217773438.1596679688-.2358398438.267578125-.4580078125.3237304688-.666015625s.083984375-.4038085938.083984375-.587890625c0-.4877929688-.166015625-.8720703125-.498046875-1.1518554688-.33203125-.2802734375-.8217773438-.4204101562-1.4697265625-.4204101562-.49609375,0-.9340820312.076171875-1.3139648438.2280273438-.3803710938.15234375-.7060546875.3881835938-.9780273438.7080078125l-.6123046875-.5278320312c.328125-.3837890625.748046875-.6796875,1.2602539062-.8881835938.51171875-.2080078125,1.083984375-.3120117188,1.7158203125-.3120117188.5678710938,0,1.0600585938.0903320312,1.4760742188.2700195312.416015625.1801757812.7377929688.4423828125.9658203125.7861328125.2280273438.3442382812.3422851562.748046875.3422851562,1.2119140625,0,.2719726562-.0380859375.5400390625-.1142578125.8041992188-.076171875.263671875-.2119140625.5419921875-.4077148438.833984375-.1962890625.2919921875-.4819335938.6220703125-.8579101562.9897460938l-3.2041015625,3.1440429688-.240234375-.3359375h5.2080078125v.7680664062h-5.8920898438Z"/>
        <path class="cls-3" d="M197.6496043762,8.5439453125c-.6479492188,0-1.2241210938-.1694335938-1.7280273438-.509765625-.50390625-.33984375-.8999023438-.828125-1.1879882812-1.4638671875-.2880859375-.6362304688-.4321289062-1.4018554688-.4321289062-2.2983398438,0-.8955078125.1440429688-1.6616210938.4321289062-2.2978515625.2880859375-.6357421875.6840820312-1.1240234375,1.1879882812-1.4638671875s1.080078125-.5102539062,1.7280273438-.5102539062,1.2236328125.1704101562,1.7280273438.5102539062c.50390625.33984375.9018554688.828125,1.1938476562,1.4638671875.2919921875.6362304688.4379882812,1.40234375.4379882812,2.2978515625,0,.896484375-.1459960938,1.662109375-.4379882812,2.2983398438-.2919921875.6357421875-.6899414062,1.1240234375-1.1938476562,1.4638671875-.5043945312.3403320312-1.080078125.509765625-1.7280273438.509765625ZM197.6496043762,7.751953125c.4956054688,0,.927734375-.1337890625,1.2958984375-.4018554688.3676757812-.2680664062.6557617188-.66015625.8637695312-1.17578125.2080078125-.5161132812.3120117188-1.1499023438.3120117188-1.90234375,0-.7514648438-.1040039062-1.3857421875-.3120117188-1.9018554688s-.49609375-.9077148438-.8637695312-1.17578125c-.3681640625-.2680664062-.8002929688-.40234375-1.2958984375-.40234375-.4799804688,0-.908203125.1342773438-1.2841796875.40234375s-.66796875.6596679688-.8759765625,1.17578125-.3120117188,1.150390625-.3120117188,1.9018554688c0,.7524414062.1040039062,1.3862304688.3120117188,1.90234375.2080078125.515625.5.9077148438.8759765625,1.17578125s.8041992188.4018554688,1.2841796875.4018554688Z"/>
        <path class="cls-3" d="M205.5934520324,8.5439453125c-.6479492188,0-1.2241210938-.1694335938-1.7280273438-.509765625-.50390625-.33984375-.8999023438-.828125-1.1879882812-1.4638671875-.2880859375-.6362304688-.4321289062-1.4018554688-.4321289062-2.2983398438,0-.8955078125.1440429688-1.6616210938.4321289062-2.2978515625.2880859375-.6357421875.6840820312-1.1240234375,1.1879882812-1.4638671875s1.080078125-.5102539062,1.7280273438-.5102539062,1.2236328125.1704101562,1.7280273438.5102539062c.50390625.33984375.9018554688.828125,1.1938476562,1.4638671875.2919921875.6362304688.4379882812,1.40234375.4379882812,2.2978515625,0,.896484375-.1459960938,1.662109375-.4379882812,2.2983398438-.2919921875.6357421875-.6899414062,1.1240234375-1.1938476562,1.4638671875-.5043945312.3403320312-1.080078125.509765625-1.7280273438.509765625ZM205.5934520324,7.751953125c.4956054688,0,.927734375-.1337890625,1.2958984375-.4018554688.3676757812-.2680664062.6557617188-.66015625.8637695312-1.17578125.2080078125-.5161132812.3120117188-1.1499023438.3120117188-1.90234375,0-.7514648438-.1040039062-1.3857421875-.3120117188-1.9018554688s-.49609375-.9077148438-.8637695312-1.17578125c-.3681640625-.2680664062-.8002929688-.40234375-1.2958984375-.40234375-.4799804688,0-.908203125.1342773438-1.2841796875.40234375s-.66796875.6596679688-.8759765625,1.17578125-.3120117188,1.150390625-.3120117188,1.9018554688c0,.7524414062.1040039062,1.3862304688.3120117188,1.90234375.2080078125.515625.5.9077148438.8759765625,1.17578125s.8041992188.4018554688,1.2841796875.4018554688Z"/>
        <path class="cls-3" d="M212.8410106262,8.5439453125c-.6000976562,0-1.171875-.09765625-1.7158203125-.2939453125-.5439453125-.1958007812-.9760742188-.4575195312-1.2958984375-.7856445312l.419921875-.6840820312c.2641601562.2797851562.6259765625.51171875,1.0859375.6958007812s.9580078125.2758789062,1.494140625.2758789062c.7119140625,0,1.25390625-.1577148438,1.6259765625-.4736328125s.5581054688-.7299804688.5581054688-1.2421875c0-.3598632812-.0864257812-.669921875-.2583007812-.9301757812-.171875-.259765625-.4619140625-.4619140625-.8701171875-.6059570312-.4077148438-.1440429688-.9677734375-.2158203125-1.6796875-.2158203125h-1.7880859375l.4321289062-4.2119140625h4.595703125v.7680664062h-4.248046875l.4443359375-.419921875-.3720703125,3.5278320312-.4443359375-.4321289062h1.572265625c.84765625,0,1.5278320312.1040039062,2.0400390625.3120117188.51171875.2080078125.8818359375.498046875,1.1098632812.8701171875s.3422851562.8061523438.3422851562,1.3017578125c0,.4721679688-.1123046875.90234375-.3364257812,1.2900390625-.2236328125.3881835938-.5600585938.6943359375-1.0078125.91796875-.4482421875.2241210938-1.0161132812.3359375-1.7041015625.3359375Z"/>
        <path class="cls-3" d="M217.0773387512,5.5922851562v-.744140625h3.1435546875v.744140625h-3.1435546875Z"/>
        <path class="cls-3" d="M221.4088817199,8.4721679688v-.6118164062l3.4921875-3.4204101562c.3198242188-.3120117188.5600585938-.5859375.7202148438-.8217773438.1596679688-.2358398438.267578125-.4580078125.3237304688-.666015625s.083984375-.4038085938.083984375-.587890625c0-.4877929688-.166015625-.8720703125-.498046875-1.1518554688-.33203125-.2802734375-.8217773438-.4204101562-1.4697265625-.4204101562-.49609375,0-.9340820312.076171875-1.3139648438.2280273438-.3803710938.15234375-.7060546875.3881835938-.9780273438.7080078125l-.6123046875-.5278320312c.328125-.3837890625.748046875-.6796875,1.2602539062-.8881835938.51171875-.2080078125,1.083984375-.3120117188,1.7158203125-.3120117188.5678710938,0,1.0600585938.0903320312,1.4760742188.2700195312.416015625.1801757812.7377929688.4423828125.9658203125.7861328125.2280273438.3442382812.3422851562.748046875.3422851562,1.2119140625,0,.2719726562-.0380859375.5400390625-.1142578125.8041992188-.076171875.263671875-.2119140625.5419921875-.4077148438.833984375-.1962890625.2919921875-.4819335938.6220703125-.8579101562.9897460938l-3.2041015625,3.1440429688-.240234375-.3359375h5.2080078125v.7680664062h-5.8920898438Z"/>
        <path class="cls-3" d="M231.7291942199,8.5439453125c-.6479492188,0-1.2241210938-.1694335938-1.7280273438-.509765625-.50390625-.33984375-.8999023438-.828125-1.1879882812-1.4638671875-.2880859375-.6362304688-.4321289062-1.4018554688-.4321289062-2.2983398438,0-.8955078125.1440429688-1.6616210938.4321289062-2.2978515625.2880859375-.6357421875.6840820312-1.1240234375,1.1879882812-1.4638671875s1.080078125-.5102539062,1.7280273438-.5102539062,1.2236328125.1704101562,1.7280273438.5102539062c.50390625.33984375.9018554688.828125,1.1938476562,1.4638671875.2919921875.6362304688.4379882812,1.40234375.4379882812,2.2978515625,0,.896484375-.1459960938,1.662109375-.4379882812,2.2983398438-.2919921875.6357421875-.6899414062,1.1240234375-1.1938476562,1.4638671875-.5043945312.3403320312-1.080078125.509765625-1.7280273438.509765625ZM231.7291942199,7.751953125c.4956054688,0,.927734375-.1337890625,1.2958984375-.4018554688.3676757812-.2680664062.6557617188-.66015625.8637695312-1.17578125.2080078125-.5161132812.3120117188-1.1499023438.3120117188-1.90234375,0-.7514648438-.1040039062-1.3857421875-.3120117188-1.9018554688s-.49609375-.9077148438-.8637695312-1.17578125c-.3681640625-.2680664062-.8002929688-.40234375-1.2958984375-.40234375-.4799804688,0-.908203125.1342773438-1.2841796875.40234375s-.66796875.6596679688-.8759765625,1.17578125-.3120117188,1.150390625-.3120117188,1.9018554688c0,.7524414062.1040039062,1.3862304688.3120117188,1.90234375.2080078125.515625.5.9077148438.8759765625,1.17578125s.8041992188.4018554688,1.2841796875.4018554688Z"/>
        <path class="cls-3" d="M239.6730418762,8.5439453125c-.6479492188,0-1.2241210938-.1694335938-1.7280273438-.509765625-.50390625-.33984375-.8999023438-.828125-1.1879882812-1.4638671875-.2880859375-.6362304688-.4321289062-1.4018554688-.4321289062-2.2983398438,0-.8955078125.1440429688-1.6616210938.4321289062-2.2978515625.2880859375-.6357421875.6840820312-1.1240234375,1.1879882812-1.4638671875s1.080078125-.5102539062,1.7280273438-.5102539062,1.2236328125.1704101562,1.7280273438.5102539062c.50390625.33984375.9018554688.828125,1.1938476562,1.4638671875.2919921875.6362304688.4379882812,1.40234375.4379882812,2.2978515625,0,.896484375-.1459960938,1.662109375-.4379882812,2.2983398438-.2919921875.6357421875-.6899414062,1.1240234375-1.1938476562,1.4638671875-.5043945312.3403320312-1.080078125.509765625-1.7280273438.509765625ZM239.6730418762,7.751953125c.4956054688,0,.927734375-.1337890625,1.2958984375-.4018554688.3676757812-.2680664062.6557617188-.66015625.8637695312-1.17578125.2080078125-.5161132812.3120117188-1.1499023438.3120117188-1.90234375,0-.7514648438-.1040039062-1.3857421875-.3120117188-1.9018554688s-.49609375-.9077148438-.8637695312-1.17578125c-.3681640625-.2680664062-.8002929688-.40234375-1.2958984375-.40234375-.4799804688,0-.908203125.1342773438-1.2841796875.40234375s-.66796875.6596679688-.8759765625,1.17578125-.3120117188,1.150390625-.3120117188,1.9018554688c0,.7524414062.1040039062,1.3862304688.3120117188,1.90234375.2080078125.515625.5.9077148438.8759765625,1.17578125s.8041992188.4018554688,1.2841796875.4018554688Z"/>
        <path class="cls-3" d="M246.8849559387,0c.7436523438,0,1.3715820312.1665039062,1.8837890625.498046875.51171875.33203125.8999023438.8100585938,1.1640625,1.4340820312.263671875.6240234375.3959960938,1.3798828125.3959960938,2.2680664062,0,.9438476562-.162109375,1.7397460938-.4858398438,2.3881835938-.32421875.6479492188-.7744140625,1.1357421875-1.3500976562,1.4638671875-.576171875.328125-1.244140625.4916992188-2.00390625.4916992188-.3764648438,0-.734375-.0356445312-1.07421875-.1079101562-.3403320312-.0717773438-.6459960938-.1875-.91796875-.34765625l.3481445312-.6962890625c.2158203125.1440429688.4658203125.24609375.75.3061523438.2836914062.0600585938.5776367188.08984375.8818359375.08984375.9038085938,0,1.6259765625-.2880859375,2.166015625-.8637695312.5400390625-.576171875.8100585938-1.4360351562.8100585938-2.580078125,0-.1840820312-.0102539062-.4038085938-.0302734375-.66015625-.0200195312-.255859375-.0659179688-.51171875-.1376953125-.7680664062l.2998046875.2280273438c-.080078125.416015625-.25.7700195312-.509765625,1.0620117188-.2602539062.2924804688-.580078125.5141601562-.9599609375.666015625-.3803710938.15234375-.8022460938.2280273438-1.2661132812.2280273438-.5522460938,0-1.0419921875-.1040039062-1.4702148438-.3120117188-.427734375-.2080078125-.76171875-.5-1.001953125-.8759765625-.2397460938-.3759765625-.3598632812-.8198242188-.3598632812-1.33203125,0-.5278320312.1240234375-.9838867188.3720703125-1.3676757812.2475585938-.3842773438.58984375-.6821289062,1.0258789062-.8940429688s.92578125-.318359375,1.4702148438-.318359375ZM246.9206004699.7319335938c-.3999023438,0-.75390625.07421875-1.0620117188.2221679688s-.5498046875.3583984375-.7260742188.6298828125c-.17578125.2724609375-.263671875.5961914062-.263671875.9721679688,0,.5522460938.1899414062.9921875.5698242188,1.3198242188.3798828125.328125.8940429688.4921875,1.5419921875.4921875.4321289062,0,.8100585938-.080078125,1.1342773438-.240234375.3237304688-.1596679688.5756835938-.3793945312.755859375-.6596679688.1796875-.2802734375.2700195312-.591796875.2700195312-.9360351562,0-.3120117188-.083984375-.6040039062-.251953125-.8759765625s-.416015625-.494140625-.744140625-.666015625-.736328125-.2583007812-1.2241210938-.2583007812Z"/>
      </g>
      <g>
        <path class="cls-3" d="M274.7902293762,8.4721679688v-.6118164062l3.4921875-3.4204101562c.3193359375-.3120117188.5595703125-.5859375.7197265625-.8217773438s.267578125-.4580078125.32421875-.666015625c.0556640625-.2080078125.083984375-.4038085938.083984375-.587890625,0-.4877929688-.166015625-.8720703125-.498046875-1.1518554688-.33203125-.2802734375-.822265625-.4204101562-1.4697265625-.4204101562-.49609375,0-.9345703125.076171875-1.314453125.2280273438-.3798828125.15234375-.7060546875.3881835938-.9775390625.7080078125l-.6123046875-.5278320312c.328125-.3837890625.748046875-.6796875,1.259765625-.8881835938.51171875-.2080078125,1.083984375-.3120117188,1.7158203125-.3120117188.568359375,0,1.060546875.0903320312,1.4765625.2700195312.416015625.1801757812.7373046875.4423828125.9658203125.7861328125.2275390625.3442382812.341796875.748046875.341796875,1.2119140625,0,.2719726562-.0380859375.5400390625-.1142578125.8041992188-.076171875.263671875-.2119140625.5419921875-.4072265625.833984375-.1962890625.2919921875-.482421875.6220703125-.8583984375.9897460938l-3.2041015625,3.1440429688-.240234375-.3359375h5.2080078125v.7680664062h-5.8916015625Z"/>
        <path class="cls-3" d="M285.1105418762,8.5439453125c-.6484375,0-1.224609375-.1694335938-1.728515625-.509765625-.50390625-.33984375-.8994140625-.828125-1.1875-1.4638671875-.2880859375-.6362304688-.4326171875-1.4018554688-.4326171875-2.2983398438,0-.8955078125.14453125-1.6616210938.4326171875-2.2978515625.2880859375-.6357421875.68359375-1.1240234375,1.1875-1.4638671875s1.080078125-.5102539062,1.728515625-.5102539062c.6474609375,0,1.2236328125.1704101562,1.7275390625.5102539062s.90234375.828125,1.1943359375,1.4638671875c.2919921875.6362304688.4375,1.40234375.4375,2.2978515625,0,.896484375-.1455078125,1.662109375-.4375,2.2983398438-.2919921875.6357421875-.6904296875,1.1240234375-1.1943359375,1.4638671875-.50390625.3403320312-1.080078125.509765625-1.7275390625.509765625ZM285.1105418762,7.751953125c.4951171875,0,.927734375-.1337890625,1.2958984375-.4018554688.3671875-.2680664062.6552734375-.66015625.86328125-1.17578125.2080078125-.5161132812.3125-1.1499023438.3125-1.90234375,0-.7514648438-.1044921875-1.3857421875-.3125-1.9018554688s-.49609375-.9077148438-.86328125-1.17578125c-.3681640625-.2680664062-.80078125-.40234375-1.2958984375-.40234375-.48046875,0-.908203125.1342773438-1.2841796875.40234375s-.66796875.6596679688-.8759765625,1.17578125-.3125,1.150390625-.3125,1.9018554688c0,.7524414062.1044921875,1.3862304688.3125,1.90234375.2080078125.515625.5.9077148438.8759765625,1.17578125s.8037109375.4018554688,1.2841796875.4018554688Z"/>
        <path class="cls-3" d="M291.1701121887,8.4721679688V.4321289062l.3837890625.408203125h-2.3642578125V.072265625h2.8447265625v8.3999023438h-.8642578125Z"/>
        <path class="cls-3" d="M297.3859325012,8.5439453125c-.6474609375,0-1.2236328125-.1694335938-1.7275390625-.509765625-.50390625-.33984375-.900390625-.828125-1.1884765625-1.4638671875-.2880859375-.6362304688-.431640625-1.4018554688-.431640625-2.2983398438,0-.8955078125.1435546875-1.6616210938.431640625-2.2978515625.2880859375-.6357421875.6845703125-1.1240234375,1.1884765625-1.4638671875s1.080078125-.5102539062,1.7275390625-.5102539062c.6484375,0,1.2236328125.1704101562,1.728515625.5102539062.50390625.33984375.9013671875.828125,1.193359375,1.4638671875.2919921875.6362304688.4384765625,1.40234375.4384765625,2.2978515625,0,.896484375-.146484375,1.662109375-.4384765625,2.2983398438-.2919921875.6357421875-.689453125,1.1240234375-1.193359375,1.4638671875-.5048828125.3403320312-1.080078125.509765625-1.728515625.509765625ZM297.3859325012,7.751953125c.49609375,0,.927734375-.1337890625,1.2958984375-.4018554688s.65625-.66015625.8642578125-1.17578125c.2080078125-.5161132812.3115234375-1.1499023438.3115234375-1.90234375,0-.7514648438-.103515625-1.3857421875-.3115234375-1.9018554688s-.49609375-.9077148438-.8642578125-1.17578125-.7998046875-.40234375-1.2958984375-.40234375c-.4794921875,0-.908203125.1342773438-1.2841796875.40234375s-.66796875.6596679688-.8759765625,1.17578125-.3115234375,1.150390625-.3115234375,1.9018554688c0,.7524414062.103515625,1.3862304688.3115234375,1.90234375.2080078125.515625.5.9077148438.8759765625,1.17578125s.8046875.4018554688,1.2841796875.4018554688Z"/>
        <path class="cls-3" d="M302.0783153137,5.5922851562v-.744140625h3.1435546875v.744140625h-3.1435546875Z"/>
        <path class="cls-3" d="M306.4093700012,8.4721679688v-.6118164062l3.4921875-3.4204101562c.3203125-.3120117188.560546875-.5859375.720703125-.8217773438.1591796875-.2358398438.267578125-.4580078125.3232421875-.666015625.056640625-.2080078125.083984375-.4038085938.083984375-.587890625,0-.4877929688-.166015625-.8720703125-.498046875-1.1518554688-.33203125-.2802734375-.8212890625-.4204101562-1.4697265625-.4204101562-.49609375,0-.93359375.076171875-1.3134765625.2280273438-.380859375.15234375-.7060546875.3881835938-.978515625.7080078125l-.6123046875-.5278320312c.328125-.3837890625.748046875-.6796875,1.2607421875-.8881835938.51171875-.2080078125,1.083984375-.3120117188,1.7158203125-.3120117188.5673828125,0,1.0595703125.0903320312,1.4755859375.2700195312.416015625.1801757812.73828125.4423828125.9658203125.7861328125.228515625.3442382812.3427734375.748046875.3427734375,1.2119140625,0,.2719726562-.0380859375.5400390625-.1142578125.8041992188-.076171875.263671875-.2119140625.5419921875-.408203125.833984375s-.4814453125.6220703125-.857421875.9897460938l-3.2041015625,3.1440429688-.240234375-.3359375h5.2080078125v.7680664062h-5.892578125Z"/>
        <path class="cls-3" d="M316.7296825012,8.5439453125c-.6484375,0-1.224609375-.1694335938-1.728515625-.509765625-.50390625-.33984375-.8994140625-.828125-1.1875-1.4638671875-.2880859375-.6362304688-.4326171875-1.4018554688-.4326171875-2.2983398438,0-.8955078125.14453125-1.6616210938.4326171875-2.2978515625.2880859375-.6357421875.68359375-1.1240234375,1.1875-1.4638671875s1.080078125-.5102539062,1.728515625-.5102539062c.6474609375,0,1.2236328125.1704101562,1.7275390625.5102539062s.90234375.828125,1.1943359375,1.4638671875c.2919921875.6362304688.4375,1.40234375.4375,2.2978515625,0,.896484375-.1455078125,1.662109375-.4375,2.2983398438-.2919921875.6357421875-.6904296875,1.1240234375-1.1943359375,1.4638671875-.50390625.3403320312-1.080078125.509765625-1.7275390625.509765625ZM316.7296825012,7.751953125c.4951171875,0,.927734375-.1337890625,1.2958984375-.4018554688.3671875-.2680664062.6552734375-.66015625.86328125-1.17578125.2080078125-.5161132812.3125-1.1499023438.3125-1.90234375,0-.7514648438-.1044921875-1.3857421875-.3125-1.9018554688s-.49609375-.9077148438-.86328125-1.17578125c-.3681640625-.2680664062-.80078125-.40234375-1.2958984375-.40234375-.48046875,0-.908203125.1342773438-1.2841796875.40234375s-.66796875.6596679688-.8759765625,1.17578125-.3125,1.150390625-.3125,1.9018554688c0,.7524414062.1044921875,1.3862304688.3125,1.90234375.2080078125.515625.5.9077148438.8759765625,1.17578125s.8037109375.4018554688,1.2841796875.4018554688Z"/>
        <path class="cls-3" d="M322.7892528137,8.4721679688V.4321289062l.384765625.408203125h-2.3642578125V.072265625h2.84375v8.3999023438h-.8642578125Z"/>
        <path class="cls-3" d="M325.5128856262,6.2641601562v-.6240234375l4.4521484375-5.5678710938h.9599609375l-4.416015625,5.5678710938-.4677734375-.1440429688h6.755859375v.7680664062h-7.2841796875ZM330.2531200012,8.4721679688v-2.2080078125l.0244140625-.7680664062v-1.9438476562h.83984375v4.919921875h-.8642578125Z"/>
      </g>
      <g>
        <path class="cls-3" d="M6.7872996887,8.4721679688V.4321289062l.3842773438.408203125h-2.3642578125V.072265625h2.8442382812v8.3999023438h-.8642578125Z"/>
        <path class="cls-3" d="M12.2716746887,0c.7436523438,0,1.3715820312.1665039062,1.8837890625.498046875.51171875.33203125.8999023438.8100585938,1.1640625,1.4340820312.263671875.6240234375.3959960938,1.3798828125.3959960938,2.2680664062,0,.9438476562-.162109375,1.7397460938-.4858398438,2.3881835938-.32421875.6479492188-.7744140625,1.1357421875-1.3500976562,1.4638671875-.576171875.328125-1.244140625.4916992188-2.00390625.4916992188-.3764648438,0-.734375-.0356445312-1.07421875-.1079101562-.3403320312-.0717773438-.6459960938-.1875-.91796875-.34765625l.3481445312-.6962890625c.2158203125.1440429688.4658203125.24609375.75.3061523438.2836914062.0600585938.5776367188.08984375.8818359375.08984375.9038085938,0,1.6259765625-.2880859375,2.166015625-.8637695312.5400390625-.576171875.8100585938-1.4360351562.8100585938-2.580078125,0-.1840820312-.0102539062-.4038085938-.0302734375-.66015625-.0200195312-.255859375-.0659179688-.51171875-.1376953125-.7680664062l.2998046875.2280273438c-.080078125.416015625-.25.7700195312-.509765625,1.0620117188-.2602539062.2924804688-.580078125.5141601562-.9599609375.666015625-.3803710938.15234375-.8022460938.2280273438-1.2661132812.2280273438-.5522460938,0-1.0419921875-.1040039062-1.4702148438-.3120117188-.427734375-.2080078125-.76171875-.5-1.001953125-.8759765625-.2397460938-.3759765625-.3598632812-.8198242188-.3598632812-1.33203125,0-.5278320312.1240234375-.9838867188.3720703125-1.3676757812.2475585938-.3842773438.58984375-.6821289062,1.0258789062-.8940429688s.92578125-.318359375,1.4702148438-.318359375ZM12.3073192199.7319335938c-.3999023438,0-.75390625.07421875-1.0620117188.2221679688s-.5498046875.3583984375-.7260742188.6298828125c-.17578125.2724609375-.263671875.5961914062-.263671875.9721679688,0,.5522460938.1899414062.9921875.5698242188,1.3198242188.3798828125.328125.8940429688.4921875,1.5419921875.4921875.4321289062,0,.8100585938-.080078125,1.1342773438-.240234375.3237304688-.1596679688.5756835938-.3793945312.755859375-.6596679688.1796875-.2802734375.2700195312-.591796875.2700195312-.9360351562,0-.3120117188-.083984375-.6040039062-.251953125-.8759765625s-.416015625-.494140625-.744140625-.666015625-.736328125-.2583007812-1.2241210938-.2583007812Z"/>
        <path class="cls-3" d="M19.6149364074,8.5439453125c-.6000976562,0-1.171875-.09765625-1.7158203125-.2939453125-.5439453125-.1958007812-.9760742188-.4575195312-1.2958984375-.7856445312l.419921875-.6840820312c.2641601562.2797851562.6259765625.51171875,1.0859375.6958007812s.9580078125.2758789062,1.494140625.2758789062c.7119140625,0,1.25390625-.1577148438,1.6259765625-.4736328125s.5581054688-.7299804688.5581054688-1.2421875c0-.3598632812-.0864257812-.669921875-.2583007812-.9301757812-.171875-.259765625-.4619140625-.4619140625-.8701171875-.6059570312-.4077148438-.1440429688-.9677734375-.2158203125-1.6796875-.2158203125h-1.7880859375l.4321289062-4.2119140625h4.595703125v.7680664062h-4.248046875l.4443359375-.419921875-.3720703125,3.5278320312-.4443359375-.4321289062h1.572265625c.84765625,0,1.5278320312.1040039062,2.0400390625.3120117188.51171875.2080078125.8818359375.498046875,1.1098632812.8701171875s.3422851562.8061523438.3422851562,1.3017578125c0,.4721679688-.1123046875.90234375-.3364257812,1.2900390625-.2236328125.3881835938-.5600585938.6943359375-1.0078125.91796875-.4482421875.2241210938-1.0161132812.3359375-1.7041015625.3359375Z"/>
        <path class="cls-3" d="M26.3712840637,0c.7436523438,0,1.3715820312.1665039062,1.8837890625.498046875.51171875.33203125.8999023438.8100585938,1.1640625,1.4340820312.263671875.6240234375.3959960938,1.3798828125.3959960938,2.2680664062,0,.9438476562-.162109375,1.7397460938-.4858398438,2.3881835938-.32421875.6479492188-.7744140625,1.1357421875-1.3500976562,1.4638671875-.576171875.328125-1.244140625.4916992188-2.00390625.4916992188-.3764648438,0-.734375-.0356445312-1.07421875-.1079101562-.3403320312-.0717773438-.6459960938-.1875-.91796875-.34765625l.3481445312-.6962890625c.2158203125.1440429688.4658203125.24609375.75.3061523438.2836914062.0600585938.5776367188.08984375.8818359375.08984375.9038085938,0,1.6259765625-.2880859375,2.166015625-.8637695312.5400390625-.576171875.8100585938-1.4360351562.8100585938-2.580078125,0-.1840820312-.0102539062-.4038085938-.0302734375-.66015625-.0200195312-.255859375-.0659179688-.51171875-.1376953125-.7680664062l.2998046875.2280273438c-.080078125.416015625-.25.7700195312-.509765625,1.0620117188-.2602539062.2924804688-.580078125.5141601562-.9599609375.666015625-.3803710938.15234375-.8022460938.2280273438-1.2661132812.2280273438-.5522460938,0-1.0419921875-.1040039062-1.4702148438-.3120117188-.427734375-.2080078125-.76171875-.5-1.001953125-.8759765625-.2397460938-.3759765625-.3598632812-.8198242188-.3598632812-1.33203125,0-.5278320312.1240234375-.9838867188.3720703125-1.3676757812.2475585938-.3842773438.58984375-.6821289062,1.0258789062-.8940429688s.92578125-.318359375,1.4702148438-.318359375ZM26.4069285949.7319335938c-.3999023438,0-.75390625.07421875-1.0620117188.2221679688s-.5498046875.3583984375-.7260742188.6298828125c-.17578125.2724609375-.263671875.5961914062-.263671875.9721679688,0,.5522460938.1899414062.9921875.5698242188,1.3198242188.3798828125.328125.8940429688.4921875,1.5419921875.4921875.4321289062,0,.8100585938-.080078125,1.1342773438-.240234375.3237304688-.1596679688.5756835938-.3793945312.755859375-.6596679688.1796875-.2802734375.2700195312-.591796875.2700195312-.9360351562,0-.3120117188-.083984375-.6040039062-.251953125-.8759765625s-.416015625-.494140625-.744140625-.666015625-.736328125-.2583007812-1.2241210938-.2583007812Z"/>
        <path class="cls-3" d="M34.3034129699,5.5922851562v-.744140625h3.1435546875v.744140625h-3.1435546875Z"/>
        <path class="cls-3" d="M43.3986278137,8.4721679688V.4321289062l.3842773438.408203125h-2.3642578125V.072265625h2.8442382812v8.3999023438h-.8642578125Z"/>
        <path class="cls-3" d="M48.8830028137,0c.7436523438,0,1.3715820312.1665039062,1.8837890625.498046875.51171875.33203125.8999023438.8100585938,1.1640625,1.4340820312.263671875.6240234375.3959960938,1.3798828125.3959960938,2.2680664062,0,.9438476562-.162109375,1.7397460938-.4858398438,2.3881835938-.32421875.6479492188-.7744140625,1.1357421875-1.3500976562,1.4638671875-.576171875.328125-1.244140625.4916992188-2.00390625.4916992188-.3764648438,0-.734375-.0356445312-1.07421875-.1079101562-.3403320312-.0717773438-.6459960938-.1875-.91796875-.34765625l.3481445312-.6962890625c.2158203125.1440429688.4658203125.24609375.75.3061523438.2836914062.0600585938.5776367188.08984375.8818359375.08984375.9038085938,0,1.6259765625-.2880859375,2.166015625-.8637695312.5400390625-.576171875.8100585938-1.4360351562.8100585938-2.580078125,0-.1840820312-.0102539062-.4038085938-.0302734375-.66015625-.0200195312-.255859375-.0659179688-.51171875-.1376953125-.7680664062l.2998046875.2280273438c-.080078125.416015625-.25.7700195312-.509765625,1.0620117188-.2602539062.2924804688-.580078125.5141601562-.9599609375.666015625-.3803710938.15234375-.8022460938.2280273438-1.2661132812.2280273438-.5522460938,0-1.0419921875-.1040039062-1.4702148438-.3120117188-.427734375-.2080078125-.76171875-.5-1.001953125-.8759765625-.2397460938-.3759765625-.3598632812-.8198242188-.3598632812-1.33203125,0-.5278320312.1240234375-.9838867188.3720703125-1.3676757812.2475585938-.3842773438.58984375-.6821289062,1.0258789062-.8940429688s.92578125-.318359375,1.4702148438-.318359375ZM48.9186473449.7319335938c-.3999023438,0-.75390625.07421875-1.0620117188.2221679688s-.5498046875.3583984375-.7260742188.6298828125c-.17578125.2724609375-.263671875.5961914062-.263671875.9721679688,0,.5522460938.1899414062.9921875.5698242188,1.3198242188.3798828125.328125.8940429688.4921875,1.5419921875.4921875.4321289062,0,.8100585938-.080078125,1.1342773438-.240234375.3237304688-.1596679688.5756835938-.3793945312.755859375-.6596679688.1796875-.2802734375.2700195312-.591796875.2700195312-.9360351562,0-.3120117188-.083984375-.6040039062-.251953125-.8759765625s-.416015625-.494140625-.744140625-.666015625-.736328125-.2583007812-1.2241210938-.2583007812Z"/>
        <path class="cls-3" d="M56.1911082824,0c.7436523438,0,1.3715820312.1665039062,1.8837890625.498046875.51171875.33203125.8999023438.8100585938,1.1640625,1.4340820312.263671875.6240234375.3959960938,1.3798828125.3959960938,2.2680664062,0,.9438476562-.162109375,1.7397460938-.4858398438,2.3881835938-.32421875.6479492188-.7744140625,1.1357421875-1.3500976562,1.4638671875-.576171875.328125-1.244140625.4916992188-2.00390625.4916992188-.3764648438,0-.734375-.0356445312-1.07421875-.1079101562-.3403320312-.0717773438-.6459960938-.1875-.91796875-.34765625l.3481445312-.6962890625c.2158203125.1440429688.4658203125.24609375.75.3061523438.2836914062.0600585938.5776367188.08984375.8818359375.08984375.9038085938,0,1.6259765625-.2880859375,2.166015625-.8637695312.5400390625-.576171875.8100585938-1.4360351562.8100585938-2.580078125,0-.1840820312-.0102539062-.4038085938-.0302734375-.66015625-.0200195312-.255859375-.0659179688-.51171875-.1376953125-.7680664062l.2998046875.2280273438c-.080078125.416015625-.25.7700195312-.509765625,1.0620117188-.2602539062.2924804688-.580078125.5141601562-.9599609375.666015625-.3803710938.15234375-.8022460938.2280273438-1.2661132812.2280273438-.5522460938,0-1.0419921875-.1040039062-1.4702148438-.3120117188-.427734375-.2080078125-.76171875-.5-1.001953125-.8759765625-.2397460938-.3759765625-.3598632812-.8198242188-.3598632812-1.33203125,0-.5278320312.1240234375-.9838867188.3720703125-1.3676757812.2475585938-.3842773438.58984375-.6821289062,1.0258789062-.8940429688s.92578125-.318359375,1.4702148438-.318359375ZM56.2267528137.7319335938c-.3999023438,0-.75390625.07421875-1.0620117188.2221679688s-.5498046875.3583984375-.7260742188.6298828125c-.17578125.2724609375-.263671875.5961914062-.263671875.9721679688,0,.5522460938.1899414062.9921875.5698242188,1.3198242188.3798828125.328125.8940429688.4921875,1.5419921875.4921875.4321289062,0,.8100585938-.080078125,1.1342773438-.240234375.3237304688-.1596679688.5756835938-.3793945312.755859375-.6596679688.1796875-.2802734375.2700195312-.591796875.2700195312-.9360351562,0-.3120117188-.083984375-.6040039062-.251953125-.8759765625s-.416015625-.494140625-.744140625-.666015625-.736328125-.2583007812-1.2241210938-.2583007812Z"/>
        <path class="cls-3" d="M63.4987254699,0c.7436523438,0,1.3715820312.1665039062,1.8837890625.498046875.51171875.33203125.8999023438.8100585938,1.1640625,1.4340820312.263671875.6240234375.3959960938,1.3798828125.3959960938,2.2680664062,0,.9438476562-.162109375,1.7397460938-.4858398438,2.3881835938-.32421875.6479492188-.7744140625,1.1357421875-1.3500976562,1.4638671875-.576171875.328125-1.244140625.4916992188-2.00390625.4916992188-.3764648438,0-.734375-.0356445312-1.07421875-.1079101562-.3403320312-.0717773438-.6459960938-.1875-.91796875-.34765625l.3481445312-.6962890625c.2158203125.1440429688.4658203125.24609375.75.3061523438.2836914062.0600585938.5776367188.08984375.8818359375.08984375.9038085938,0,1.6259765625-.2880859375,2.166015625-.8637695312.5400390625-.576171875.8100585938-1.4360351562.8100585938-2.580078125,0-.1840820312-.0102539062-.4038085938-.0302734375-.66015625-.0200195312-.255859375-.0659179688-.51171875-.1376953125-.7680664062l.2998046875.2280273438c-.080078125.416015625-.25.7700195312-.509765625,1.0620117188-.2602539062.2924804688-.580078125.5141601562-.9599609375.666015625-.3803710938.15234375-.8022460938.2280273438-1.2661132812.2280273438-.5522460938,0-1.0419921875-.1040039062-1.4702148438-.3120117188-.427734375-.2080078125-.76171875-.5-1.001953125-.8759765625-.2397460938-.3759765625-.3598632812-.8198242188-.3598632812-1.33203125,0-.5278320312.1240234375-.9838867188.3720703125-1.3676757812.2475585938-.3842773438.58984375-.6821289062,1.0258789062-.8940429688s.92578125-.318359375,1.4702148438-.318359375ZM63.5343700012.7319335938c-.3999023438,0-.75390625.07421875-1.0620117188.2221679688s-.5498046875.3583984375-.7260742188.6298828125c-.17578125.2724609375-.263671875.5961914062-.263671875.9721679688,0,.5522460938.1899414062.9921875.5698242188,1.3198242188.3798828125.328125.8940429688.4921875,1.5419921875.4921875.4321289062,0,.8100585938-.080078125,1.1342773438-.240234375.3237304688-.1596679688.5756835938-.3793945312.755859375-.6596679688.1796875-.2802734375.2700195312-.591796875.2700195312-.9360351562,0-.3120117188-.083984375-.6040039062-.251953125-.8759765625s-.416015625-.494140625-.744140625-.666015625-.736328125-.2583007812-1.2241210938-.2583007812Z"/>
      </g>
    </g>
  </g>
</svg>