<?xml version="1.0" encoding="UTF-8"?>
<svg xmlns="http://www.w3.org/2000/svg" width="124.9738018519mm" height="132.8177396606mm" xmlns:xlink="http://www.w3.org/1999/xlink" viewBox="0 0 354.2564515146 376.4912361884">
  <defs>
    <style>
      .cls-1 {
        fill: #00a0cc;
      }

      .cls-2 {
        isolation: isolate;
      }

      .cls-3 {
        fill: #151449;
      }

      .cls-4 {
        fill: url(#linear-gradient);
        mix-blend-mode: multiply;
      }
    </style>
    <linearGradient id="linear-gradient" x1="0" y1="199.3630104311" x2="354.2564515146" y2="199.3630104311" gradientUnits="userSpaceOnUse">
      <stop offset="0" stop-color="#15489e"/>
      <stop offset=".9997455254" stop-color="#151449"/>
    </linearGradient>
  </defs>
  <g class="cls-2">
    <g id="Layer_2" data-name="Layer 2">
      <g id="Layer_1-2" data-name="Layer 1">
        <g>
          <circle class="cls-4" cx="177.1282257573" cy="199.3630104311" r="177.1282257573"/>
          <g>
            <path class="cls-1" d="M68.8128197164,222.509765625v-91.4399414062l4.3671875,4.6401367188h-26.8857421875v-8.734375h32.3447265625v95.5341796875h-9.826171875Z"/>
            <path class="cls-1" d="M134.0481712789,223.3286132812c-7.369140625,0-13.9208984375-1.9321289062-19.65234375-5.8002929688-5.732421875-3.8662109375-10.236328125-9.4169921875-13.51171875-16.650390625s-4.9130859375-15.9443359375-4.9130859375-26.1352539062c0-10.1889648438,1.6376953125-18.90234375,4.9130859375-26.1357421875,3.275390625-7.2329101562,7.779296875-12.7817382812,13.51171875-16.6499023438,5.7314453125-3.8662109375,12.283203125-5.8002929688,19.65234375-5.8002929688,7.3701171875,0,13.9208984375,1.9340820312,19.6533203125,5.8002929688,5.7314453125,3.8681640625,10.2568359375,9.4169921875,13.5791015625,16.6499023438,3.3203125,7.2333984375,4.9814453125,15.9467773438,4.9814453125,26.1357421875,0,10.1909179688-1.6611328125,18.9018554688-4.9814453125,26.1352539062-3.322265625,7.2333984375-7.84765625,12.7841796875-13.5791015625,16.650390625-5.732421875,3.8681640625-12.283203125,5.8002929688-19.6533203125,5.8002929688ZM134.0481712789,214.3212890625c5.640625,0,10.5537109375-1.5229492188,14.740234375-4.572265625,4.18359375-3.0473632812,7.458984375-7.5063476562,9.826171875-13.3745117188,2.3642578125-5.8686523438,3.5478515625-13.0786132812,3.5478515625-21.6318359375,0-8.5512695312-1.18359375-15.7631835938-3.5478515625-21.6318359375-2.3671875-5.8686523438-5.642578125-10.3251953125-9.826171875-13.3745117188-4.1865234375-3.0473632812-9.099609375-4.572265625-14.740234375-4.572265625-5.458984375,0-10.3271484375,1.5249023438-14.6025390625,4.572265625-4.2783203125,3.0493164062-7.5986328125,7.505859375-9.962890625,13.3745117188-2.3671875,5.8686523438-3.548828125,13.0805664062-3.548828125,21.6318359375,0,8.5532226562,1.181640625,15.7631835938,3.548828125,21.6318359375,2.3642578125,5.8681640625,5.6845703125,10.3271484375,9.962890625,13.3745117188,4.275390625,3.0493164062,9.1435546875,4.572265625,14.6025390625,4.572265625Z"/>
            <path class="cls-1" d="M218.9348900289,223.3286132812c-7.369140625,0-13.9208984375-1.9321289062-19.65234375-5.8002929688-5.732421875-3.8662109375-10.236328125-9.4169921875-13.51171875-16.650390625s-4.9130859375-15.9443359375-4.9130859375-26.1352539062c0-10.1889648438,1.6376953125-18.90234375,4.9130859375-26.1357421875,3.275390625-7.2329101562,7.779296875-12.7817382812,13.51171875-16.6499023438,5.7314453125-3.8662109375,12.283203125-5.8002929688,19.65234375-5.8002929688,7.3701171875,0,13.9208984375,1.9340820312,19.6533203125,5.8002929688,5.7314453125,3.8681640625,10.2568359375,9.4169921875,13.5791015625,16.6499023438,3.3203125,7.2333984375,4.9814453125,15.9467773438,4.9814453125,26.1357421875,0,10.1909179688-1.6611328125,18.9018554688-4.9814453125,26.1352539062-3.322265625,7.2333984375-7.84765625,12.7841796875-13.5791015625,16.650390625-5.732421875,3.8681640625-12.283203125,5.8002929688-19.6533203125,5.8002929688ZM218.9348900289,214.3212890625c5.640625,0,10.5537109375-1.5229492188,14.740234375-4.572265625,4.18359375-3.0473632812,7.458984375-7.5063476562,9.826171875-13.3745117188,2.3642578125-5.8686523438,3.5478515625-13.0786132812,3.5478515625-21.6318359375,0-8.5512695312-1.18359375-15.7631835938-3.5478515625-21.6318359375-2.3671875-5.8686523438-5.642578125-10.3251953125-9.826171875-13.3745117188-4.1865234375-3.0473632812-9.099609375-4.572265625-14.740234375-4.572265625-5.458984375,0-10.3271484375,1.5249023438-14.6025390625,4.572265625-4.2783203125,3.0493164062-7.5986328125,7.505859375-9.962890625,13.3745117188-2.3671875,5.8686523438-3.548828125,13.0805664062-3.548828125,21.6318359375,0,8.5532226562,1.181640625,15.7631835938,3.548828125,21.6318359375,2.3642578125,5.8681640625,5.6845703125,10.3271484375,9.962890625,13.3745117188,4.275390625,3.0493164062,9.1435546875,4.572265625,14.6025390625,4.572265625Z"/>
            <path class="cls-1" d="M268.2024681539,178.8369140625v-8.0522460938h59.3671875v8.0522460938h-59.3671875ZM293.5872337789,203.67578125v-57.8662109375h8.59765625v57.8662109375h-8.59765625Z"/>
          </g>
          <g>
            <path class="cls-1" d="M77.9270775289,264.8559570312c-1.9990234375,0-3.8466796875-.3349609375-5.5419921875-1.005859375-1.6962890625-.6704101562-3.1640625-1.61328125-4.404296875-2.828125s-2.2080078125-2.64453125-2.904296875-4.2900390625c-.6962890625-1.64453125-1.0439453125-3.44140625-1.0439453125-5.390625,0-1.9482421875.34765625-3.7451171875,1.0439453125-5.390625.6962890625-1.6450195312,1.6708984375-3.0751953125,2.923828125-4.2900390625s2.7265625-2.1572265625,4.4228515625-2.828125c1.6953125-.6704101562,3.54296875-1.005859375,5.5419921875-1.005859375,1.9228515625,0,3.7333984375.3227539062,5.4287109375.9677734375,1.6953125.6455078125,3.1259765625,1.6137695312,4.2900390625,2.904296875l-1.7841796875,1.7841796875c-1.0888671875-1.11328125-2.291015625-1.9169921875-3.6064453125-2.4106445312-1.31640625-.4931640625-2.7333984375-.740234375-4.251953125-.740234375-1.5947265625,0-3.0751953125.2724609375-4.44140625.81640625-1.3671875.5444335938-2.556640625,1.3159179688-3.568359375,2.3154296875-1.0126953125,1.0004882812-1.8037109375,2.1640625-2.373046875,3.4926757812s-.8544921875,2.7905273438-.8544921875,4.384765625c0,1.5947265625.28515625,3.0561523438.8544921875,4.384765625s1.3603515625,2.4931640625,2.373046875,3.4926757812c1.01171875,1,2.201171875,1.7719726562,3.568359375,2.3159179688,1.3662109375.5444335938,2.8466796875.8159179688,4.44140625.8159179688,1.5185546875,0,2.935546875-.2524414062,4.251953125-.7592773438,1.3154296875-.505859375,2.517578125-1.3154296875,3.6064453125-2.4296875l1.7841796875,1.7841796875c-1.1640625,1.291015625-2.5947265625,2.265625-4.2900390625,2.9233398438-1.6953125.658203125-3.517578125.9868164062-5.466796875.9868164062Z"/>
            <path class="cls-1" d="M101.2366478414,264.818359375c-1.94921875,0-3.6826171875-.4365234375-5.201171875-1.3100585938-1.5185546875-.873046875-2.720703125-2.0810546875-3.6064453125-3.6254882812-.88671875-1.54296875-1.3291015625-3.2895507812-1.3291015625-5.2387695312,0-1.9990234375.4423828125-3.7583007812,1.3291015625-5.2768554688.8857421875-1.5185546875,2.087890625-2.7075195312,3.6064453125-3.568359375,1.5185546875-.8603515625,3.251953125-1.2905273438,5.201171875-1.2905273438,1.9736328125,0,3.7255859375.4365234375,5.2578125,1.3095703125,1.5302734375.873046875,2.7333984375,2.0629882812,3.6064453125,3.568359375.873046875,1.5063476562,1.3095703125,3.2587890625,1.3095703125,5.2578125,0,1.9741210938-.4365234375,3.7270507812-1.3095703125,5.2578125-.873046875,1.5317382812-2.08203125,2.7333984375-3.6259765625,3.6064453125-1.5439453125.8735351562-3.2900390625,1.3100585938-5.23828125,1.3100585938ZM101.2366478414,262.4267578125c1.4423828125,0,2.7197265625-.3227539062,3.833984375-.9682617188,1.11328125-.6455078125,1.9931640625-1.556640625,2.638671875-2.7333984375.64453125-1.1767578125.9677734375-2.537109375.9677734375-4.0810546875,0-1.5688476562-.3232421875-2.935546875-.9677734375-4.1000976562-.6455078125-1.1635742188-1.525390625-2.0688476562-2.638671875-2.7143554688-1.1142578125-.6450195312-2.37890625-.9677734375-3.796875-.9677734375-1.4169921875,0-2.6826171875.3227539062-3.7958984375.9677734375-1.1142578125.6455078125-2,1.55078125-2.6572265625,2.7143554688-.658203125,1.1645507812-.9873046875,2.53125-.9873046875,4.1000976562,0,1.5439453125.3291015625,2.904296875.9873046875,4.0810546875.6572265625,1.1767578125,1.537109375,2.087890625,2.638671875,2.7333984375,1.1005859375.6455078125,2.359375.9682617188,3.77734375.9682617188Z"/>
            <path class="cls-1" d="M141.8186790914,244.5083007812c1.619140625,0,3.0302734375.3100585938,4.232421875.9296875,1.2021484375.6206054688,2.138671875,1.5629882812,2.8095703125,2.8286132812.669921875,1.265625,1.005859375,2.8598632812,1.005859375,4.783203125v11.5786132812h-2.6953125v-11.3129882812c0-2.1005859375-.5-3.6884765625-1.4990234375-4.7641601562-1-1.0756835938-2.4111328125-1.6137695312-4.2333984375-1.6137695312-1.3662109375,0-2.5498046875.28515625-3.5498046875.8544921875s-1.771484375,1.3920898438-2.3154296875,2.4672851562c-.5439453125,1.076171875-.81640625,2.373046875-.81640625,3.8916015625v10.4775390625h-2.6953125v-11.3129882812c0-2.1005859375-.505859375-3.6884765625-1.5185546875-4.7641601562s-2.4296875-1.6137695312-4.251953125-1.6137695312c-1.341796875,0-2.5185546875.28515625-3.5302734375.8544921875-1.0126953125.5693359375-1.791015625,1.3920898438-2.3349609375,2.4672851562-.5439453125,1.076171875-.8154296875,2.373046875-.8154296875,3.8916015625v10.4775390625h-2.6953125v-19.9306640625h2.5810546875v5.390625l-.41796875-.9487304688c.607421875-1.4428710938,1.587890625-2.5751953125,2.9423828125-3.3979492188,1.353515625-.8217773438,2.955078125-1.2333984375,4.802734375-1.2333984375,1.9482421875,0,3.6064453125.4873046875,4.97265625,1.4614257812,1.3671875.974609375,2.251953125,2.4360351562,2.6572265625,4.384765625l-1.0625-.4174804688c.58203125-1.6196289062,1.61328125-2.9291992188,3.09375-3.9291992188,1.48046875-.9995117188,3.2587890625-1.4995117188,5.333984375-1.4995117188Z"/>
            <path class="cls-1" d="M157.1936790914,271.9931640625v-27.2954101562h2.5810546875v5.998046875l-.265625,3.986328125.3798828125,4.0239257812v13.287109375h-2.6953125ZM167.4807884664,264.818359375c-1.720703125,0-3.27734375-.3989257812-4.6689453125-1.1958007812-1.392578125-.7973632812-2.5-1.9487304688-3.322265625-3.4545898438s-1.2333984375-3.3466796875-1.2333984375-5.5239257812c0-2.1762695312.404296875-4.017578125,1.21484375-5.5234375.8095703125-1.5053710938,1.91015625-2.6508789062,3.302734375-3.435546875,1.3916015625-.7841796875,2.9609375-1.1767578125,4.70703125-1.1767578125,1.8984375,0,3.6005859375.423828125,5.1064453125,1.271484375,1.505859375.8481445312,2.6884765625,2.0375976562,3.5498046875,3.568359375.859375,1.5317382812,1.2900390625,3.296875,1.2900390625,5.2958984375,0,2.025390625-.4306640625,3.7963867188-1.2900390625,5.3149414062-.861328125,1.5185546875-2.0439453125,2.7084960938-3.5498046875,3.568359375-1.505859375.8608398438-3.2080078125,1.291015625-5.1064453125,1.291015625ZM167.2913353414,262.4267578125c1.4169921875,0,2.6826171875-.3227539062,3.7958984375-.9682617188,1.1142578125-.6455078125,1.9990234375-1.556640625,2.658203125-2.7333984375.6572265625-1.1767578125.986328125-2.537109375.986328125-4.0810546875,0-1.5434570312-.3291015625-2.8974609375-.986328125-4.0620117188-.6591796875-1.1635742188-1.5439453125-2.0747070312-2.658203125-2.7333984375-1.11328125-.6577148438-2.37890625-.9868164062-3.7958984375-.9868164062-1.41796875,0-2.689453125.3291015625-3.8154296875.9868164062-1.1259765625.6586914062-2.01171875,1.5698242188-2.6572265625,2.7333984375-.6455078125,1.1645507812-.9677734375,2.5185546875-.9677734375,4.0620117188,0,1.5439453125.322265625,2.904296875.9677734375,4.0810546875s1.53125,2.087890625,2.6572265625,2.7333984375,2.3974609375.9682617188,3.8154296875.9682617188Z"/>
            <path class="cls-1" d="M188.5501244039,264.818359375c-1.494140625,0-2.7900390625-.2470703125-3.8916015625-.740234375-1.1005859375-.4936523438-1.9423828125-1.1772460938-2.5244140625-2.0502929688s-.873046875-1.87890625-.873046875-3.0180664062c0-1.037109375.2470703125-1.9799804688.740234375-2.828125.4931640625-.84765625,1.3037109375-1.5307617188,2.4296875-2.0498046875,1.1259765625-.5185546875,2.638671875-.7783203125,4.537109375-.7783203125h6.87109375v2.01171875h-6.7958984375c-1.923828125,0-3.2587890625.341796875-4.0048828125,1.025390625-.7470703125.6831054688-1.1201171875,1.53125-1.1201171875,2.5434570312,0,1.138671875.4423828125,2.0498046875,1.3291015625,2.7333984375.8857421875.6831054688,2.1259765625,1.0249023438,3.720703125,1.0249023438,1.517578125,0,2.828125-.34765625,3.9287109375-1.0439453125,1.1005859375-.6958007812,1.904296875-1.7021484375,2.41015625-3.0180664062l.607421875,1.8598632812c-.505859375,1.31640625-1.384765625,2.3671875-2.6376953125,3.1513671875-1.2529296875.7846679688-2.828125,1.1767578125-4.7265625,1.1767578125ZM195.4212181539,264.6284179688v-4.4038085938l-.1142578125-.7211914062v-7.3647460938c0-1.6953125-.4736328125-2.9990234375-1.4228515625-3.91015625s-2.3603515625-1.3666992188-4.2333984375-1.3666992188c-1.2900390625,0-2.5185546875.2153320312-3.6826171875.6455078125-1.1640625.4306640625-2.1513671875,1-2.9609375,1.7080078125l-1.21484375-2.01171875c1.0126953125-.8603515625,2.2275390625-1.5244140625,3.64453125-1.9931640625,1.4169921875-.4682617188,2.91015625-.7021484375,4.4794921875-.7021484375,2.58203125,0,4.5751953125.6391601562,5.9794921875,1.9169921875,1.404296875,1.2783203125,2.107421875,3.220703125,2.107421875,5.8271484375v12.3759765625h-2.58203125Z"/>
            <path class="cls-1" d="M215.5042259664,244.5083007812c1.619140625,0,3.04296875.3100585938,4.2705078125.9296875,1.2275390625.6206054688,2.1884765625,1.5629882812,2.8857421875,2.8286132812.6953125,1.265625,1.0439453125,2.8598632812,1.0439453125,4.783203125v11.5786132812h-2.6953125v-11.3129882812c0-2.1005859375-.5263671875-3.6884765625-1.576171875-4.7641601562s-2.5244140625-1.6137695312-4.4228515625-1.6137695312c-1.4169921875,0-2.6513671875.28515625-3.701171875.8544921875-1.05078125.5693359375-1.8603515625,1.3920898438-2.4296875,2.4672851562-.5693359375,1.076171875-.853515625,2.373046875-.853515625,3.8916015625v10.4775390625h-2.6953125v-19.9306640625h2.5810546875v5.466796875l-.41796875-1.0249023438c.6328125-1.4428710938,1.6455078125-2.5751953125,3.037109375-3.3979492188,1.3916015625-.8217773438,3.0498046875-1.2333984375,4.9736328125-1.2333984375Z"/>
            <path class="cls-1" d="M232.3596947164,240.2939453125c-.556640625,0-1.025390625-.189453125-1.404296875-.5693359375-.3798828125-.3793945312-.5693359375-.8349609375-.5693359375-1.3666992188,0-.53125.189453125-.98046875.5693359375-1.34765625.37890625-.3662109375.84765625-.5502929688,1.404296875-.5502929688s1.025390625.1772460938,1.404296875.53125c.3798828125.3549804688.5693359375.7973632812.5693359375,1.3291015625,0,.556640625-.18359375,1.0249023438-.5498046875,1.404296875-.3671875.3798828125-.841796875.5693359375-1.423828125.5693359375ZM230.9934837789,264.6284179688v-19.9306640625h2.6953125v19.9306640625h-2.6953125Z"/>
            <path class="cls-1" d="M249.6702415914,264.818359375c-2.0751953125,0-3.8974609375-.4365234375-5.4658203125-1.3100585938-1.5703125-.873046875-2.796875-2.0747070312-3.6826171875-3.6064453125-.88671875-1.5307617188-1.3291015625-3.2836914062-1.3291015625-5.2578125s.423828125-3.7202148438,1.271484375-5.2387695312,2.0126953125-2.7143554688,3.4931640625-3.5874023438,3.14453125-1.3095703125,4.9921875-1.3095703125c1.8720703125,0,3.5361328125.423828125,4.9921875,1.271484375,1.455078125.8481445312,2.6005859375,2.0375976562,3.435546875,3.568359375.8349609375,1.5317382812,1.2529296875,3.296875,1.2529296875,5.2958984375,0,.126953125-.0068359375.259765625-.01953125.3989257812s-.0185546875.2846679688-.0185546875.4365234375h-17.349609375v-2.0122070312h15.9072265625l-1.0634765625.7973632812c0-1.4428710938-.310546875-2.7270507812-.9296875-3.853515625-.62109375-1.1254882812-1.4619140625-2.0053710938-2.5244140625-2.6381835938-1.0634765625-.6323242188-2.291015625-.94921875-3.6826171875-.94921875-1.3671875,0-2.5947265625.3168945312-3.6826171875.94921875-1.0888671875.6328125-1.9365234375,1.5185546875-2.5439453125,2.6572265625-.6064453125,1.1391601562-.91015625,2.4428710938-.91015625,3.91015625v.41796875c0,1.5180664062.3349609375,2.853515625,1.005859375,4.0048828125.669921875,1.1518554688,1.6064453125,2.0498046875,2.80859375,2.6953125s2.5751953125.9682617188,4.119140625.9682617188c1.21484375,0,2.34765625-.21484375,3.3974609375-.6455078125,1.05078125-.4301757812,1.955078125-1.087890625,2.71484375-1.9741210938l1.5185546875,1.74609375c-.88671875,1.0629882812-1.9931640625,1.8735351562-3.322265625,2.4296875-1.328125.5571289062-2.7900390625.8354492188-4.384765625.8354492188Z"/>
            <path class="cls-1" d="M269.4866478414,264.818359375c-1.6455078125,0-3.2021484375-.2338867188-4.669921875-.7026367188-1.4677734375-.4677734375-2.619140625-1.0561523438-3.4541015625-1.7651367188l1.21484375-2.1259765625c.8095703125.607421875,1.8466796875,1.1333007812,3.1123046875,1.5756835938,1.265625.4428710938,2.5947265625.6640625,3.986328125.6640625,1.8984375,0,3.2646484375-.296875,4.1005859375-.8920898438.8349609375-.5942382812,1.251953125-1.3857421875,1.251953125-2.3725585938,0-.7338867188-.234375-1.3095703125-.7021484375-1.7275390625-.46875-.4174804688-1.08203125-.7333984375-1.8408203125-.9487304688-.759765625-.21484375-1.607421875-.3989257812-2.5439453125-.55078125s-1.8662109375-.3286132812-2.7900390625-.53125c-.923828125-.2021484375-1.765625-.4995117188-2.5244140625-.8920898438-.759765625-.3920898438-1.373046875-.9301757812-1.8408203125-1.61328125-.46875-.68359375-.703125-1.5947265625-.703125-2.7333984375,0-1.087890625.3037109375-2.0625.9111328125-2.9233398438.607421875-.8598632812,1.5-1.5375976562,2.6767578125-2.0307617188,1.1767578125-.4936523438,2.61328125-.740234375,4.30859375-.740234375,1.291015625,0,2.58203125.1704101562,3.8720703125.5122070312,1.291015625.341796875,2.353515625.7915039062,3.189453125,1.34765625l-1.1767578125,2.1640625c-.88671875-.607421875-1.8359375-1.0439453125-2.84765625-1.3095703125-1.0126953125-.2661132812-2.025390625-.3989257812-3.037109375-.3989257812-1.796875,0-3.119140625.310546875-3.966796875.9301757812-.8486328125.6206054688-1.271484375,1.4111328125-1.271484375,2.3725585938,0,.7592773438.2333984375,1.3544921875.7021484375,1.7841796875.4677734375.4306640625,1.087890625.7661132812,1.8603515625,1.0063476562.771484375.2407226562,1.619140625.4365234375,2.54296875.5883789062s1.84765625.3354492188,2.771484375.5502929688c.923828125.2153320312,1.771484375.5068359375,2.54296875.873046875.7724609375.3671875,1.3916015625.8862304688,1.8603515625,1.556640625.46875.6708984375.7021484375,1.55078125.7021484375,2.638671875,0,1.1640625-.322265625,2.1704101562-.9677734375,3.0180664062-.6455078125.8481445312-1.58203125,1.505859375-2.8095703125,1.9736328125-1.2275390625.46875-2.7138671875.7026367188-4.4599609375.7026367188Z"/>
          </g>
          <g>
            <path class="cls-3" d="M145.7903587789,8.4716796875v-.611328125l3.4921875-3.4208984375c.3193359375-.3115234375.5595703125-.5859375.7197265625-.8212890625.1591796875-.236328125.267578125-.4580078125.3232421875-.666015625.056640625-.2080078125.083984375-.404296875.083984375-.587890625,0-.48828125-.166015625-.8720703125-.498046875-1.15234375s-.8212890625-.419921875-1.46875-.419921875c-.49609375,0-.9345703125.076171875-1.314453125.2275390625-.380859375.15234375-.7060546875.388671875-.978515625.7080078125l-.611328125-.52734375c.328125-.3837890625.748046875-.6796875,1.259765625-.888671875.51171875-.2080078125,1.083984375-.3115234375,1.7158203125-.3115234375.5673828125,0,1.0595703125.08984375,1.4755859375.26953125.416015625.1806640625.73828125.4423828125.966796875.7861328125.2275390625.3447265625.341796875.748046875.341796875,1.2119140625,0,.2724609375-.0380859375.5400390625-.1142578125.8046875-.076171875.263671875-.2119140625.5419921875-.4072265625.833984375-.197265625.2919921875-.482421875.6220703125-.8583984375.9892578125l-3.2041015625,3.14453125-.240234375-.3359375h5.2080078125v.767578125h-5.8916015625Z"/>
            <path class="cls-3" d="M156.1106712789,8.5439453125c-.6484375,0-1.224609375-.169921875-1.728515625-.509765625s-.900390625-.828125-1.1875-1.4638671875c-.2890625-.63671875-.4326171875-1.40234375-.4326171875-2.298828125,0-.8955078125.1435546875-1.6611328125.4326171875-2.2978515625.287109375-.6357421875.68359375-1.1240234375,1.1875-1.4638671875s1.080078125-.509765625,1.728515625-.509765625c.6474609375,0,1.22265625.169921875,1.7275390625.509765625.50390625.33984375.9013671875.828125,1.1943359375,1.4638671875.291015625.63671875.4375,1.40234375.4375,2.2978515625,0,.896484375-.146484375,1.662109375-.4375,2.298828125-.29296875.6357421875-.6904296875,1.1240234375-1.1943359375,1.4638671875-.5048828125.33984375-1.080078125.509765625-1.7275390625.509765625ZM156.1106712789,7.751953125c.4951171875,0,.927734375-.1337890625,1.294921875-.40234375.3681640625-.267578125.65625-.66015625.8642578125-1.17578125s.3115234375-1.1494140625.3115234375-1.90234375c0-.7509765625-.103515625-1.3857421875-.3115234375-1.9013671875-.2080078125-.5166015625-.49609375-.908203125-.8642578125-1.17578125-.3671875-.2685546875-.7998046875-.40234375-1.294921875-.40234375-.48046875,0-.908203125.1337890625-1.28515625.40234375-.375.267578125-.66796875.6591796875-.875,1.17578125-.208984375.515625-.3125,1.150390625-.3125,1.9013671875,0,.7529296875.103515625,1.38671875.3125,1.90234375.20703125.515625.5.908203125.875,1.17578125.376953125.2685546875.8046875.40234375,1.28515625.40234375Z"/>
            <path class="cls-3" d="M160.5501244039,8.4716796875v-.611328125l3.4921875-3.4208984375c.3193359375-.3115234375.5595703125-.5859375.7197265625-.8212890625.1591796875-.236328125.267578125-.4580078125.3232421875-.666015625.056640625-.2080078125.083984375-.404296875.083984375-.587890625,0-.48828125-.166015625-.8720703125-.498046875-1.15234375s-.8212890625-.419921875-1.46875-.419921875c-.49609375,0-.9345703125.076171875-1.314453125.2275390625-.380859375.15234375-.7060546875.388671875-.978515625.7080078125l-.611328125-.52734375c.328125-.3837890625.748046875-.6796875,1.259765625-.888671875.51171875-.2080078125,1.083984375-.3115234375,1.7158203125-.3115234375.5673828125,0,1.0595703125.08984375,1.4755859375.26953125.416015625.1806640625.73828125.4423828125.966796875.7861328125.2275390625.3447265625.341796875.748046875.341796875,1.2119140625,0,.2724609375-.0380859375.5400390625-.1142578125.8046875-.076171875.263671875-.2119140625.5419921875-.4072265625.833984375-.197265625.2919921875-.482421875.6220703125-.8583984375.9892578125l-3.2041015625,3.14453125-.240234375-.3359375h5.2080078125v.767578125h-5.8916015625Z"/>
            <path class="cls-3" d="M170.8704369039,8.5439453125c-.6484375,0-1.224609375-.169921875-1.728515625-.509765625s-.900390625-.828125-1.1875-1.4638671875c-.2890625-.63671875-.4326171875-1.40234375-.4326171875-2.298828125,0-.8955078125.1435546875-1.6611328125.4326171875-2.2978515625.287109375-.6357421875.68359375-1.1240234375,1.1875-1.4638671875s1.080078125-.509765625,1.728515625-.509765625c.6474609375,0,1.22265625.169921875,1.7275390625.509765625.50390625.33984375.9013671875.828125,1.1943359375,1.4638671875.291015625.63671875.4375,1.40234375.4375,2.2978515625,0,.896484375-.146484375,1.662109375-.4375,2.298828125-.29296875.6357421875-.6904296875,1.1240234375-1.1943359375,1.4638671875-.5048828125.33984375-1.080078125.509765625-1.7275390625.509765625ZM170.8704369039,7.751953125c.4951171875,0,.927734375-.1337890625,1.294921875-.40234375.3681640625-.267578125.65625-.66015625.8642578125-1.17578125s.3115234375-1.1494140625.3115234375-1.90234375c0-.7509765625-.103515625-1.3857421875-.3115234375-1.9013671875-.2080078125-.5166015625-.49609375-.908203125-.8642578125-1.17578125-.3671875-.2685546875-.7998046875-.40234375-1.294921875-.40234375-.48046875,0-.908203125.1337890625-1.28515625.40234375-.375.267578125-.66796875.6591796875-.875,1.17578125-.208984375.515625-.3125,1.150390625-.3125,1.9013671875,0,.7529296875.103515625,1.38671875.3125,1.90234375.20703125.515625.5.908203125.875,1.17578125.376953125.2685546875.8046875.40234375,1.28515625.40234375Z"/>
            <path class="cls-3" d="M175.5618431539,5.591796875v-.744140625h3.1435546875v.744140625h-3.1435546875Z"/>
            <path class="cls-3" d="M179.8938744039,8.4716796875v-.611328125l3.4921875-3.4208984375c.3193359375-.3115234375.5595703125-.5859375.7197265625-.8212890625.1591796875-.236328125.267578125-.4580078125.3232421875-.666015625.056640625-.2080078125.083984375-.404296875.083984375-.587890625,0-.48828125-.166015625-.8720703125-.498046875-1.15234375s-.8212890625-.419921875-1.46875-.419921875c-.49609375,0-.9345703125.076171875-1.314453125.2275390625-.380859375.15234375-.7060546875.388671875-.978515625.7080078125l-.611328125-.52734375c.328125-.3837890625.748046875-.6796875,1.259765625-.888671875.51171875-.2080078125,1.083984375-.3115234375,1.7158203125-.3115234375.5673828125,0,1.0595703125.08984375,1.4755859375.26953125.416015625.1806640625.73828125.4423828125.966796875.7861328125.2275390625.3447265625.341796875.748046875.341796875,1.2119140625,0,.2724609375-.0380859375.5400390625-.1142578125.8046875-.076171875.263671875-.2119140625.5419921875-.4072265625.833984375-.197265625.2919921875-.482421875.6220703125-.8583984375.9892578125l-3.2041015625,3.14453125-.240234375-.3359375h5.2080078125v.767578125h-5.8916015625Z"/>
            <path class="cls-3" d="M190.2141869039,8.5439453125c-.6484375,0-1.224609375-.169921875-1.728515625-.509765625s-.900390625-.828125-1.1875-1.4638671875c-.2890625-.63671875-.4326171875-1.40234375-.4326171875-2.298828125,0-.8955078125.1435546875-1.6611328125.4326171875-2.2978515625.287109375-.6357421875.68359375-1.1240234375,1.1875-1.4638671875s1.080078125-.509765625,1.728515625-.509765625c.6474609375,0,1.22265625.169921875,1.7275390625.509765625.50390625.33984375.9013671875.828125,1.1943359375,1.4638671875.291015625.63671875.4375,1.40234375.4375,2.2978515625,0,.896484375-.146484375,1.662109375-.4375,2.298828125-.29296875.6357421875-.6904296875,1.1240234375-1.1943359375,1.4638671875-.5048828125.33984375-1.080078125.509765625-1.7275390625.509765625ZM190.2141869039,7.751953125c.4951171875,0,.927734375-.1337890625,1.294921875-.40234375.3681640625-.267578125.65625-.66015625.8642578125-1.17578125s.3115234375-1.1494140625.3115234375-1.90234375c0-.7509765625-.103515625-1.3857421875-.3115234375-1.9013671875-.2080078125-.5166015625-.49609375-.908203125-.8642578125-1.17578125-.3671875-.2685546875-.7998046875-.40234375-1.294921875-.40234375-.48046875,0-.908203125.1337890625-1.28515625.40234375-.375.267578125-.66796875.6591796875-.875,1.17578125-.208984375.515625-.3125,1.150390625-.3125,1.9013671875,0,.7529296875.103515625,1.38671875.3125,1.90234375.20703125.515625.5.908203125.875,1.17578125.376953125.2685546875.8046875.40234375,1.28515625.40234375Z"/>
            <path class="cls-3" d="M194.6536400289,8.4716796875v-.611328125l3.4921875-3.4208984375c.3193359375-.3115234375.5595703125-.5859375.7197265625-.8212890625.1591796875-.236328125.267578125-.4580078125.3232421875-.666015625.056640625-.2080078125.083984375-.404296875.083984375-.587890625,0-.48828125-.166015625-.8720703125-.498046875-1.15234375s-.8212890625-.419921875-1.46875-.419921875c-.49609375,0-.9345703125.076171875-1.314453125.2275390625-.380859375.15234375-.7060546875.388671875-.978515625.7080078125l-.611328125-.52734375c.328125-.3837890625.748046875-.6796875,1.259765625-.888671875.51171875-.2080078125,1.083984375-.3115234375,1.7158203125-.3115234375.5673828125,0,1.0595703125.08984375,1.4755859375.26953125.416015625.1806640625.73828125.4423828125.966796875.7861328125.2275390625.3447265625.341796875.748046875.341796875,1.2119140625,0,.2724609375-.0380859375.5400390625-.1142578125.8046875-.076171875.263671875-.2119140625.5419921875-.4072265625.833984375-.197265625.2919921875-.482421875.6220703125-.8583984375.9892578125l-3.2041015625,3.14453125-.240234375-.3359375h5.2080078125v.767578125h-5.8916015625Z"/>
            <path class="cls-3" d="M201.4817650289,6.263671875v-.6240234375L205.9329369039.072265625h.9609375l-4.416015625,5.5673828125-.46875-.1435546875h6.755859375v.767578125h-7.283203125ZM206.2219994039,8.4716796875v-2.2080078125l.0234375-.767578125v-1.9443359375h.83984375v4.919921875h-.86328125Z"/>
          </g>
        </g>
      </g>
    </g>
  </g>
</svg>