<svg xmlns="http://www.w3.org/2000/svg" width="197" height="56" viewBox="0 0 197 56" class="style_white__P8OUM"><path d="M21.08 54.931h-2.572v-3.324h2.266v-.891h-2.266v-3.043h2.483v-.891H17.49v9.04h3.59zM33.02 46.782v9.04h.967v-5.908c0-.637-.05-1.133-.127-1.744h.038c.102.534.178.904.408 1.54l2.15 6.112h1.096v-9.04h-.968v5.195c0 .827.038 1.566.115 2.317h-.026c-.102-.573-.19-1.057-.382-1.579l-2.113-5.933H33.02ZM53.641 47.711v-.929h-4.582v.929h1.795v8.111h1.005v-8.111zM68.637 54.893h-2.572v-3.324h2.266v-.891h-2.266v-3.043h2.483v-.892h-3.501v9.041h3.59zM82.766 51.951l1.311 3.871h1.095l-1.4-4.049c.725-.293 1.146-1.019 1.146-2.19v-.56c-.013-1.452-.637-2.241-2.126-2.241h-1.91v9.04h1.019v-3.87h.865Zm-.865-.79v-3.564h.827c.815 0 1.146.445 1.146 1.515v.47c0 1.058-.331 1.58-1.133 1.58h-.84Zm16.395-4.38h-1.884v9.041h1.019v-3.794h.89c1.337 0 2.114-.84 2.114-2.305v-.79c-.013-1.426-.726-2.151-2.139-2.151Zm1.095 2.254v.688c0 1.019-.382 1.49-1.146 1.49h-.814v-3.616h.802c.789 0 1.158.433 1.158 1.438Zm14.435 2.916 1.311 3.871h1.095l-1.4-4.049c.725-.293 1.145-1.019 1.145-2.19v-.56c-.012-1.452-.636-2.241-2.126-2.241h-1.909v9.04h1.018v-3.87h.866Zm-.866-.79v-3.564h.828c.814 0 1.145.445 1.145 1.515v.47c0 1.058-.33 1.58-1.132 1.58h-.84Zm15.021 4.661v-.891h1.263v-7.258h-1.263v-.891h3.476v.891h-1.2v7.258h1.288v.891h-3.564ZM145.88 56c1.374 0 2.074-.75 2.074-2.19v-.356c0-.993-.216-1.732-1.222-2.407l-.98-.65c-.598-.394-.814-.801-.814-1.476v-.446c0-.636.33-1.07.954-1.07.675 0 1.006.459 1.006 1.452v.7l1.018-.216v-.675c0-1.502-.687-2.139-2.024-2.139-1.31 0-2.024.84-2.024 2.037v.446c0 .891.306 1.592 1.197 2.177l.942.624c.79.522.878.93.878 1.745v.318c0 .79-.343 1.248-1.005 1.248-.713 0-1.07-.522-1.07-1.617v-.828l-1.043.191v.777c0 1.566.738 2.355 2.113 2.355ZM163.394 54.931h-2.571v-3.324h2.266v-.891h-2.266v-3.043h2.482v-.891h-3.5v9.04h3.589zM177.447 56c1.375 0 2.075-.75 2.075-2.19v-.356c0-.993-.216-1.732-1.222-2.407l-.98-.65c-.598-.394-.814-.801-.814-1.476v-.446c0-.636.33-1.07.954-1.07.675 0 1.006.459 1.006 1.452v.7l1.018-.216v-.675c0-1.502-.687-2.139-2.024-2.139-1.31 0-2.024.84-2.024 2.037v.446c0 .891.306 1.592 1.197 2.177l.942.624c.789.522.878.93.878 1.745v.318c0 .79-.344 1.248-1.006 1.248-.712 0-1.069-.522-1.069-1.617v-.828l-1.044.191v.777c0 1.566.739 2.355 2.113 2.355ZM19.4 18.947c3.462 0 5.499-2.037 5.499-5.73V5.73c0-3.693-2.037-5.73-5.5-5.73-3.436 0-5.473 2.037-5.473 5.73v7.487c0 3.693 2.037 5.73 5.474 5.73Zm0-2.776c-1.171 0-1.833-.891-1.833-2.521V5.297c0-1.63.662-2.521 1.833-2.521 1.196 0 1.858.891 1.858 2.521v8.353c0 1.63-.662 2.521-1.858 2.521ZM48.626 8.99l-3.131 9.6h3.717l1.502-5.831c.204-.815.28-1.478.356-2.19h.077c.102.942.178 1.63.356 2.19l1.553 5.831H56.8l-3.106-9.575L56.544.509h-3.666l-1.35 4.559c-.203.79-.254 1.4-.381 2.215h-.051c-.102-.866-.153-1.451-.382-2.215L49.44.509h-3.717l2.902 8.48ZM82.385 3.26h4.71V.509h-8.249V18.59h3.539v-7.92h4.353V7.945h-4.353zM114.106 18.947c3.463 0 5.5-2.037 5.5-5.73V5.73c0-3.693-2.037-5.73-5.5-5.73-3.437 0-5.473 2.037-5.473 5.73v7.487c0 3.693 2.036 5.73 5.473 5.73Zm0-2.776c-1.17 0-1.833-.891-1.833-2.521V5.297c0-1.63.662-2.521 1.833-2.521 1.197 0 1.859.891 1.859 2.521v8.353c0 1.63-.662 2.521-1.859 2.521Zm31.416-4.94 1.986 7.36h3.692l-2.546-8.2c1.35-.663 2.138-2.038 2.138-4.177v-.866c-.025-3.03-1.502-4.839-5.27-4.839h-4.811V18.59h3.538v-7.36h1.273Zm-.229-2.267h-1.044v-6.01h1.044c1.35 0 1.859.637 1.859 2.292v1.146c0 1.757-.484 2.572-1.859 2.572ZM172.28.51V18.59h4.76c3.82 0 5.83-2.24 5.83-6.494V6.75c0-4.075-2.036-6.24-5.804-6.24h-4.786Zm4.633 15.51h-1.095V3.08h1.095c1.63 0 2.317 1.095 2.317 3.515v5.755c0 2.368-.738 3.667-2.317 3.667ZM4.226 39.829c2.75 0 4.15-1.503 4.15-4.38v-.713c0-1.987-.433-3.464-2.444-4.814l-1.96-1.298c-1.197-.79-1.63-1.605-1.63-2.954v-.892c0-1.273.662-2.139 1.91-2.139 1.349 0 2.01.917 2.01 2.903v1.4L8.3 26.51v-1.35c0-3.005-1.375-4.278-4.048-4.278-2.623 0-4.048 1.68-4.048 4.075v.89c0 1.784.61 3.184 2.393 4.356L4.48 31.45c1.578 1.045 1.756 1.86 1.756 3.49v.636c0 1.579-.687 2.496-2.01 2.496-1.427 0-2.14-1.044-2.14-3.235v-1.655L0 33.564v1.554c0 3.132 1.477 4.71 4.226 4.71Zm31.314 0c2.7 0 4.278-1.605 4.278-4.635v-1.86l-2.114-.534v2.42c0 1.808-.712 2.8-2.113 2.8-1.553 0-2.418-1.222-2.418-3.488v-8.735c0-2.267.84-3.132 2.342-3.132 1.477 0 2.164.993 2.164 3.056v1.757l2.139-.484v-1.375c0-3.31-1.503-4.737-4.252-4.737-2.902 0-4.506 1.783-4.506 5.195v8.124c0 3.718 1.63 5.628 4.48 5.628Zm27.852-.357V37.69h2.545V23.172l-2.545.001v-1.783h7.002v1.783h-2.42v14.515h2.598v1.783h-7.18ZM102.141 37.69h-5.143v-6.647h4.532V29.26h-4.532v-6.086h4.964v-1.783h-7.001v18.081h7.18zM125.257 21.391v18.081h1.935V27.656c0-1.273-.102-2.266-.255-3.489h.077c.203 1.07.356 1.808.815 3.082l4.302 12.223h2.19v-18.08h-1.935v10.39c0 1.655.076 3.132.229 4.634h-.051c-.204-1.146-.382-2.113-.764-3.157l-4.226-11.868h-2.317Zm36.304 18.438c2.699 0 4.277-1.605 4.277-4.635v-1.86l-2.113-.534v2.42c0 1.808-.712 2.8-2.113 2.8-1.553 0-2.418-1.222-2.418-3.488v-8.735c0-2.267.84-3.132 2.342-3.132 1.477 0 2.164.993 2.164 3.056v1.757l2.138-.484v-1.375c0-3.31-1.502-4.737-4.251-4.737-2.902 0-4.506 1.783-4.506 5.195v8.124c0 3.718 1.629 5.628 4.48 5.628ZM197 37.613h-5.143v-6.646h4.532v-1.783h-4.532v-6.086h4.965v-1.783h-7.001v18.081H197z"></path></svg>