<svg xmlns="http://www.w3.org/2000/svg" viewBox="0 0 227.76 83.39">
  <path d="M20.31,13.86s0,0,0,0c.13-.18.27-.36.43-.53.49-.52,1.07-.91,1.68-1.16-.09-1.2-1.08-2.14-2.3-2.14s-2.31,1.03-2.31,2.31c0,.52.18,1.01.47,1.39.67-.11,1.37-.07,2.03.13Z" style="fill: #00a0cc; opacity: .45;"/>
  <path d="M55.56,8.86c.22.02.45.06.67.11.7.17,1.33.48,1.87.89.6-.42.99-1.11.99-1.9,0-1.28-1.03-2.31-2.31-2.31-.95,0-1.77.57-2.12,1.39.43.53.74,1.15.9,1.81Z" style="fill: #00a0cc; opacity: .45;"/>
  <path d="M78.93,35.18c-.1,0-.2,0-.3.02-.24.64-.62,1.21-1.12,1.69.09.21.17.42.24.64.2.68.25,1.37.17,2.04.31.15.65.24,1.01.24,1.28,0,2.31-1.03,2.31-2.31s-1.03-2.31-2.31-2.31Z" style="fill: #00a0cc; opacity: .45;"/>
  <path d="M64.21,69.91s0,0,0,0c-.13.18-.27.36-.43.53-.49.52-1.07.91-1.69,1.16.09,1.2,1.08,2.14,2.3,2.14s2.31-1.03,2.31-2.31c0-.52-.18-1.01-.47-1.39-.67.11-1.37.07-2.03-.13Z" style="fill: #00b1c2; opacity: .45;"/>
  <path d="M28.96,74.91c-.22-.02-.45-.06-.67-.11-.7-.17-1.32-.47-1.85-.88-.61.42-1.01,1.11-1.01,1.91,0,1.28,1.03,2.31,2.31,2.31.96,0,1.78-.58,2.13-1.41-.43-.53-.74-1.15-.9-1.82Z" style="fill: #00b1c2; opacity: .45;"/>
  <text transform="translate(96.37 29.1)" style="fill: #fff; font-family: Montserrat-SemiBold, Montserrat; font-size: 17.71px; font-weight: 600;"><tspan style="letter-spacing: .02em;"><tspan x="0" y="0">OXFORD</tspan></tspan><tspan style="letter-spacing: .02em;"><tspan x="0" y="17.71">SCIENCE</tspan></tspan><tspan style="letter-spacing: .02em;"><tspan x="0" y="35.42">ENTERPRISES</tspan></tspan></text>
  <g>
    <circle cx="61.99" cy="9.93" r="2.66" style="fill: #00a0cc; opacity: .56;"/>
    <circle cx="60.11" cy="52.19" r="6.2" style="fill: #fff;"/>
    <path d="M66.14,50.75c.3,1.25.2,2.49-.22,3.61.49,0,.98-.05,1.47-.18,3.1-.79,4.97-3.95,4.18-7.05-.79-3.1-3.95-4.97-7.05-4.18-1.71.44-3.05,1.6-3.77,3.07,2.54.27,4.76,2.1,5.38,4.73Z" style="fill: #d4e5f0;"/>
    <path d="M71.57,47.14c.18.7.22,1.41.14,2.09,2.82-.82,4.47-3.75,3.69-6.6-.79-2.87-3.75-4.56-6.62-3.77-1.99.54-3.4,2.13-3.83,4.01,2.96-.52,5.86,1.31,6.62,4.27Z" style="fill: #add0e6;"/>
    <path d="M68.78,38.86c2.87-.79,5.83.9,6.62,3.77.05.2.09.39.12.59,1.91-1.14,2.88-3.46,2.22-5.69-.78-2.64-3.56-4.14-6.2-3.36-2.23.66-3.65,2.75-3.56,4.98.25-.11.52-.21.79-.29Z" style="fill: #85bedc;"/>
    <path d="M71.55,34.17c2.42-.72,4.95.49,5.96,2.72,1.24-1.18,1.77-3,1.21-4.73-.78-2.41-3.37-3.73-5.77-2.95-2.4.78-3.72,3.35-2.96,5.75.46-.35.99-.62,1.57-.79Z" style="fill: #5aaed4;"/>
    <path d="M72.93,29.21c1.84-.6,3.78.04,4.95,1.44.75-1.07.99-2.48.52-3.81-.78-2.18-3.17-3.32-5.35-2.54-2.18.78-3.32,3.17-2.54,5.35.11.31.26.59.43.86.52-.58,1.2-1.04,2-1.3Z" style="fill: #00a0cc;"/>
    <path d="M73.05,24.3c1.33-.48,2.75-.23,3.82.53.4-.9.45-1.95.06-2.93-.77-1.95-2.98-2.9-4.93-2.13-1.95.77-2.9,2.98-2.13,4.93.22.56.56,1.03.98,1.41.48-.81,1.24-1.46,2.19-1.8Z" style="fill: #00a0cc; opacity: .89;"/>
    <path d="M72,19.77c.48-.19.97-.27,1.45-.27.62-.94.76-2.16.26-3.26-.77-1.72-2.79-2.49-4.5-1.72-1.72.77-2.49,2.79-1.72,4.5.53,1.19,1.66,1.92,2.87,2.01.41-.55.96-.99,1.64-1.26Z" style="fill: #00a0cc; opacity: .78;"/>
    <path d="M67.58,16.06c.34-.66.9-1.21,1.63-1.54.08-.04.16-.06.24-.09.37-.82.39-1.79-.06-2.65-.77-1.49-2.59-2.07-4.08-1.31-1.49.77-2.07,2.59-1.31,4.08.68,1.32,2.2,1.93,3.58,1.51Z" style="fill: #00a0cc; opacity: .67;"/>
  </g>
  <g>
    <circle cx="60.07" cy="74.95" r="2.66" style="fill: #00a0cc; opacity: .56;"/>
    <circle cx="24.41" cy="52.19" r="6.2" style="fill: #fff;"/>
    <path d="M22.64,58.13c-1.23-.37-2.26-1.08-3.02-2-.25.42-.44.88-.58,1.37-.86,3.08.93,6.28,4.01,7.14,3.08.86,6.28-.93,7.14-4.01.48-1.7.14-3.44-.77-4.8-1.5,2.07-4.2,3.07-6.79,2.3Z" style="fill: #d4e5f0;"/>
    <path d="M23.05,64.65c-.7-.2-1.33-.51-1.88-.92-.7,2.85,1.02,5.75,3.87,6.49,2.88.75,5.82-.97,6.58-3.85.52-1.99-.15-4.01-1.56-5.32-1.02,2.82-4.07,4.42-7.01,3.6Z" style="fill: #add0e6;"/>
    <path d="M31.62,66.37c-.75,2.88-3.7,4.6-6.58,3.85-.2-.05-.39-.12-.57-.19.04,2.22,1.56,4.22,3.82,4.77,2.68.64,5.37-1.01,6.01-3.69.54-2.26-.56-4.53-2.53-5.57-.03.28-.07.55-.15.83Z" style="fill: #85bedc;"/>
    <path d="M34.3,71.11c-.59,2.45-2.89,4.04-5.34,3.8.4,1.66,1.71,3.03,3.5,3.41,2.48.53,4.91-1.05,5.44-3.53.53-2.47-1.04-4.9-3.5-5.44.07.57.04,1.16-.1,1.76Z" style="fill: #5aaed4;"/>
    <path d="M37.9,74.79c-.4,1.89-1.92,3.26-3.72,3.56.55,1.19,1.65,2.1,3.04,2.36,2.28.42,4.46-1.09,4.87-3.36.42-2.28-1.09-4.46-3.36-4.87-.32-.06-.64-.08-.96-.06.24.74.31,1.56.13,2.38Z" style="fill: #00a0cc;"/>
    <path d="M42.09,77.34c-.26,1.39-1.17,2.5-2.37,3.05.58.79,1.46,1.36,2.51,1.52,2.07.3,4-1.13,4.31-3.2.3-2.07-1.13-4-3.2-4.31-.59-.09-1.18-.03-1.71.14.46.82.65,1.8.47,2.8Z" style="fill: #00a0cc; opacity: .89;"/>
    <path d="M46.54,78.7c-.07.51-.25.97-.49,1.39.51,1,1.49,1.74,2.69,1.86,1.87.19,3.55-1.17,3.74-3.04.19-1.87-1.17-3.55-3.04-3.74-1.29-.13-2.49.47-3.17,1.48.27.63.38,1.33.27,2.05Z" style="fill: #00a0cc; opacity: .78;"/>
    <path d="M51.96,76.73c.4.63.6,1.39.52,2.18,0,.09-.02.17-.04.25.52.73,1.36,1.23,2.32,1.27,1.67.08,3.09-1.21,3.17-2.88.08-1.67-1.21-3.09-2.88-3.17-1.49-.07-2.77.94-3.1,2.34Z" style="fill: #00a0cc; opacity: .67;"/>
  </g>
  <g>
    <circle cx="79.8" cy="42.99" r="2.66" style="fill: #00a0cc; opacity: .56;"/>
    <circle cx="42.26" cy="62.5" r="6.2" style="fill: #fff;"/>
    <path d="M46.52,67c-.93.88-2.06,1.42-3.24,1.61.24.42.54.82.89,1.19,2.24,2.29,5.9,2.33,8.19.1,2.29-2.24,2.33-5.9.1-8.19-1.24-1.26-2.91-1.84-4.54-1.73,1.04,2.33.56,5.17-1.4,7.03Z" style="fill: #d4e5f0;"/>
    <path d="M52.37,69.9c-.52.51-1.11.89-1.73,1.17,2.12,2.03,5.48,1.99,7.56-.1,2.09-2.12,2.07-5.53-.05-7.62-1.46-1.45-3.55-1.88-5.39-1.31,1.93,2.3,1.8,5.74-.39,7.87Z" style="fill: #add0e6;"/>
    <path d="M58.14,63.34c2.12,2.09,2.14,5.5.05,7.62-.14.15-.29.28-.45.4,1.94,1.08,4.44.76,6.04-.92,1.89-2,1.81-5.15-.19-7.05-1.69-1.6-4.21-1.78-6.09-.59.22.16.44.34.64.54Z" style="fill: #85bedc;"/>
    <path d="M63.59,63.39c1.83,1.73,2.05,4.53.62,6.52,1.64.48,3.48.03,4.7-1.32,1.7-1.88,1.55-4.78-.33-6.48-1.87-1.69-4.76-1.55-6.46.32.53.23,1.03.54,1.47.96Z" style="fill: #5aaed4;"/>
    <path d="M68.58,62.11c1.44,1.3,1.86,3.3,1.22,5.01,1.31.12,2.65-.38,3.56-1.45,1.5-1.76,1.29-4.41-.48-5.9-1.76-1.5-4.41-1.29-5.9.48-.21.25-.39.52-.53.8.77.16,1.5.52,2.13,1.08Z" style="fill: #00a0cc;"/>
    <path d="M72.88,59.76c1.08.92,1.57,2.26,1.45,3.58.98-.11,1.91-.59,2.57-1.42,1.3-1.64,1.02-4.03-.62-5.33s-4.03-1.02-5.33.62c-.37.47-.61,1-.73,1.56.94.01,1.88.34,2.66,1Z" style="fill: #00a0cc; opacity: .89;"/>
    <path d="M76.29,56.59c.4.32.72.7.95,1.12,1.12.06,2.25-.42,2.96-1.4,1.1-1.53.76-3.66-.76-4.76-1.53-1.1-3.66-.76-4.76.76-.76,1.05-.83,2.39-.3,3.49.68.08,1.34.34,1.92.79Z" style="fill: #00a0cc; opacity: .78;"/>
    <path d="M77.29,50.9c.74-.03,1.5.17,2.15.64.07.05.13.11.2.16.89-.08,1.74-.56,2.27-1.37.91-1.41.5-3.28-.91-4.19-1.41-.91-3.28-.5-4.19.91-.81,1.25-.57,2.87.48,3.85Z" style="fill: #00a0cc; opacity: .67;"/>
  </g>
  <g>
    <circle cx="24.45" cy="8.82" r="2.66" style="fill: #00a0cc; opacity: .56;"/>
    <circle cx="60.11" cy="31.58" r="6.2" style="fill: #fff;"/>
    <path d="M61.88,25.64c1.23.37,2.26,1.08,3.02,2,.25-.42.44-.88.58-1.37.86-3.08-.93-6.28-4.01-7.14-3.08-.86-6.28.93-7.14,4.01-.48,1.7-.14,3.44.77,4.8,1.5-2.07,4.2-3.07,6.79-2.3Z" style="fill: #d4e5f0;"/>
    <path d="M61.46,19.12c.7.2,1.33.51,1.88.92.7-2.85-1.02-5.75-3.87-6.49-2.88-.75-5.82.97-6.58,3.85-.52,1.99.15,4.01,1.56,5.32,1.02-2.82,4.07-4.42,7.01-3.6Z" style="fill: #add0e6;"/>
    <path d="M52.9,17.4c.75-2.88,3.7-4.6,6.58-3.85.2.05.39.12.57.19-.04-2.22-1.56-4.22-3.82-4.77-2.68-.64-5.37,1.01-6.01,3.69-.54,2.26.56,4.53,2.53,5.57.03-.28.07-.55.15-.83Z" style="fill: #85bedc;"/>
    <path d="M50.22,12.66c.59-2.45,2.89-4.04,5.34-3.8-.4-1.66-1.71-3.03-3.5-3.41-2.48-.53-4.91,1.05-5.44,3.53-.53,2.47,1.04,4.9,3.5,5.44-.07-.57-.04-1.16.1-1.76Z" style="fill: #5aaed4;"/>
    <path d="M46.62,8.98c.4-1.89,1.92-3.26,3.72-3.56-.55-1.19-1.65-2.1-3.04-2.36-2.28-.42-4.46,1.09-4.87,3.36-.42,2.28,1.09,4.46,3.36,4.87.32.06.64.08.96.06-.24-.74-.31-1.56-.13-2.38Z" style="fill: #00a0cc;"/>
    <path d="M42.43,6.43c.26-1.39,1.17-2.5,2.37-3.05-.58-.79-1.46-1.36-2.51-1.52-2.07-.3-4,1.13-4.31,3.2-.3,2.07,1.13,4,3.2,4.31.59.09,1.18.03,1.71-.14-.46-.82-.65-1.8-.47-2.8Z" style="fill: #00a0cc; opacity: .89;"/>
    <path d="M37.98,5.06c.07-.51.25-.97.49-1.39-.51-1-1.49-1.74-2.69-1.86-1.87-.19-3.55,1.17-3.74,3.04-.19,1.87,1.17,3.55,3.04,3.74,1.29.13,2.49-.47,3.17-1.48-.27-.63-.38-1.33-.27-2.05Z" style="fill: #00a0cc; opacity: .78;"/>
    <path d="M32.56,7.04c-.4-.63-.6-1.39-.52-2.18,0-.09.02-.17.04-.25-.52-.73-1.36-1.23-2.32-1.27-1.67-.08-3.09,1.21-3.17,2.88-.08,1.67,1.21,3.09,2.88,3.17,1.49.07,2.77-.94,3.1-2.34Z" style="fill: #00a0cc; opacity: .67;"/>
  </g>
  <g>
    <circle cx="4.72" cy="40.77" r="2.66" style="fill: #00a0cc; opacity: .56;"/>
    <circle cx="42.26" cy="21.27" r="6.2" style="fill: #fff;"/>
    <path d="M38,16.77c.93-.88,2.06-1.42,3.24-1.61-.24-.42-.54-.82-.89-1.19-2.24-2.29-5.9-2.33-8.19-.1-2.29,2.24-2.33,5.9-.1,8.19,1.24,1.26,2.91,1.84,4.54,1.73-1.04-2.33-.56-5.17,1.4-7.03Z" style="fill: #d4e5f0;"/>
    <path d="M32.15,13.87c.52-.51,1.11-.89,1.73-1.17-2.12-2.03-5.48-1.99-7.56.1-2.09,2.12-2.07,5.53.05,7.62,1.46,1.45,3.55,1.88,5.39,1.31-1.93-2.3-1.8-5.74.39-7.87Z" style="fill: #add0e6;"/>
    <path d="M26.37,20.43c-2.12-2.09-2.14-5.5-.05-7.62.14-.15.29-.28.45-.4-1.94-1.08-4.44-.76-6.04.92-1.89,2-1.81,5.15.19,7.05,1.69,1.6,4.21,1.78,6.09.59-.22-.16-.44-.34-.64-.54Z" style="fill: #85bedc;"/>
    <path d="M20.93,20.38c-1.83-1.73-2.05-4.53-.62-6.52-1.64-.48-3.48-.03-4.7,1.32-1.7,1.88-1.55,4.78.33,6.48,1.87,1.69,4.76,1.55,6.46-.32-.53-.23-1.03-.54-1.47-.96Z" style="fill: #5aaed4;"/>
    <path d="M15.94,21.66c-1.44-1.3-1.86-3.3-1.22-5.01-1.31-.12-2.65.38-3.56,1.45-1.5,1.76-1.29,4.41.48,5.9,1.76,1.5,4.41,1.29,5.9-.48.21-.25.39-.52.53-.8-.77-.16-1.5-.52-2.13-1.08Z" style="fill: #00a0cc;"/>
    <path d="M11.64,24.01c-1.08-.92-1.57-2.26-1.45-3.58-.98.11-1.91.59-2.57,1.42-1.3,1.64-1.02,4.03.62,5.33s4.03,1.02,5.33-.62c.37-.47.61-1,.73-1.56-.94-.01-1.88-.34-2.66-1Z" style="fill: #00a0cc; opacity: .89;"/>
    <path d="M8.23,27.18c-.4-.32-.72-.7-.95-1.12-1.12-.06-2.25.42-2.96,1.4-1.1,1.53-.76,3.66.76,4.76,1.53,1.1,3.66.76,4.76-.76.76-1.05.83-2.39.3-3.49-.68-.08-1.34-.34-1.92-.79Z" style="fill: #00a0cc; opacity: .78;"/>
    <path d="M7.23,32.86c-.74.03-1.5-.17-2.15-.64-.07-.05-.13-.11-.2-.16-.89.08-1.74.56-2.27,1.37-.91,1.41-.5,3.28.91,4.19,1.41.91,3.28.5,4.19-.91.81-1.25.57-2.87-.48-3.85Z" style="fill: #00a0cc; opacity: .67;"/>
  </g>
  <g>
    <circle cx="22.53" cy="73.84" r="2.66" style="fill: #00a0cc; opacity: .56;"/>
    <circle cx="24.41" cy="31.58" r="6.2" style="fill: #fff;"/>
    <path d="M18.38,33.02c-.3-1.25-.2-2.49.22-3.61-.49,0-.98.05-1.47.18-3.1.79-4.97,3.95-4.18,7.05.79,3.1,3.95,4.97,7.05,4.18,1.71-.44,3.05-1.6,3.77-3.07-2.54-.27-4.76-2.1-5.38-4.73Z" style="fill: #d4e5f0;"/>
    <path d="M12.94,36.63c-.18-.7-.22-1.41-.14-2.09-2.82.82-4.47,3.75-3.69,6.6.79,2.87,3.75,4.56,6.62,3.77,1.99-.54,3.4-2.13,3.83-4.01-2.96.52-5.86-1.31-6.62-4.27Z" style="fill: #add0e6;"/>
    <path d="M15.73,44.91c-2.87.79-5.83-.9-6.62-3.77-.05-.2-.09-.39-.12-.59-1.91,1.14-2.88,3.46-2.22,5.69.78,2.64,3.56,4.14,6.2,3.36,2.23-.66,3.65-2.75,3.56-4.98-.25.11-.52.21-.79.29Z" style="fill: #85bedc;"/>
    <path d="M12.97,49.6c-2.42.72-4.95-.49-5.96-2.72-1.24,1.18-1.77,3-1.21,4.73.78,2.41,3.37,3.73,5.77,2.95,2.4-.78,3.72-3.35,2.96-5.75-.46.35-.99.62-1.57.79Z" style="fill: #5aaed4;"/>
    <path d="M11.58,54.56c-1.84.6-3.78-.04-4.95-1.44-.75,1.07-.99,2.48-.52,3.81.78,2.18,3.17,3.32,5.35,2.54,2.18-.78,3.32-3.17,2.54-5.35-.11-.31-.26-.59-.43-.86-.52.58-1.2,1.04-2,1.3Z" style="fill: #00a0cc;"/>
    <path d="M11.47,59.47c-1.33.48-2.75.23-3.82-.53-.4.9-.45,1.95-.06,2.93.77,1.95,2.98,2.9,4.93,2.13,1.95-.77,2.9-2.98,2.13-4.93-.22-.56-.56-1.03-.98-1.41-.48.81-1.24,1.46-2.19,1.8Z" style="fill: #00a0cc; opacity: .89;"/>
    <path d="M12.51,64c-.48.19-.97.27-1.45.27-.62.94-.76,2.16-.26,3.26.77,1.72,2.79,2.49,4.5,1.72,1.72-.77,2.49-2.79,1.72-4.5-.53-1.19-1.66-1.92-2.87-2.01-.41.55-.96.99-1.64,1.26Z" style="fill: #00a0cc; opacity: .78;"/>
    <path d="M16.93,67.71c-.34.66-.9,1.21-1.63,1.54-.08.04-.16.06-.24.09-.37.82-.39,1.79.06,2.65.77,1.49,2.59,2.07,4.08,1.31,1.49-.77,2.07-2.59,1.31-4.08-.68-1.32-2.2-1.93-3.58-1.51Z" style="fill: #00a0cc; opacity: .67;"/>
  </g>
  <path d="M5.89,48.57c.24-.63.62-1.21,1.12-1.69-.09-.21-.17-.42-.24-.64-.2-.69-.25-1.38-.17-2.05-.3-.15-.64-.23-1-.23-1.28,0-2.31,1.03-2.31,2.31s1.03,2.31,2.31,2.31c.1,0,.19,0,.29-.02Z" style="fill: #00b1c2; opacity: .45;"/>
</svg>