<?xml version="1.0" encoding="UTF-8"?>
<svg id="Layer_1" xmlns="http://www.w3.org/2000/svg" version="1.1" viewBox="0 0 38.5 34.9">
  <!-- Generator: Adobe Illustrator 29.5.1, SVG Export Plug-In . SVG Version: 2.1.0 Build 141)  -->
  <defs>
    <style>
      .st0 {
        fill: #fff;
      }
    </style>
  </defs>
  <path class="st0" d="M14.4,0l-6.2,25.9-1.1-6c2.2,0,4.1.7,5.5,2,1.4,1.4,2.1,3.2,2.1,5.4s-.7,4.1-2.1,5.5c-1.4,1.4-3.1,2.1-5.2,2.1s-4-.7-5.4-2.2c-1.4-1.4-2-3.2-2-5.4s0-1.6.1-2.2c0-.7.3-1.4.6-2.4.3-.9.7-2.1,1.1-3.4L7.7,0h6.7ZM38.2,0l-6.2,25.9-1.1-6c2.2,0,4.1.7,5.5,2,1.4,1.4,2.1,3.2,2.1,5.4s-.7,4.1-2.1,5.5c-1.4,1.4-3.1,2.1-5.2,2.1s-4-.7-5.4-2.2c-1.4-1.4-2-3.2-2-5.4s0-1.6.1-2.2c0-.7.3-1.4.6-2.4.3-.9.7-2.1,1.1-3.4L31.5,0h6.7Z"/>
</svg>