<svg width="39" height="35" viewBox="0 0 39 35" fill="none" xmlns="http://www.w3.org/2000/svg">
<path d="M14.4 0L8.2 25.9L7.1 19.9C9.3 19.9 11.2 20.6 12.6 21.9C14 23.3 14.7 25.1 14.7 27.3C14.7 29.5 14 31.4 12.6 32.8C11.2 34.2 9.5 34.9 7.4 34.9C5.3 34.9 3.4 34.2 2 32.7C0.6 31.3 0 29.5 0 27.3C0 25.1 0 25.7 0.1 25.1C0.1 24.4 0.4 23.7 0.7 22.7C1 21.8 1.4 20.6 1.8 19.3L7.7 0H14.4ZM38.2 0L32 25.9L30.9 19.9C33.1 19.9 35 20.6 36.4 21.9C37.8 23.3 38.5 25.1 38.5 27.3C38.5 29.5 37.8 31.4 36.4 32.8C35 34.2 33.3 34.9 31.2 34.9C29.1 34.9 27.2 34.2 25.8 32.7C24.4 31.3 23.8 29.5 23.8 27.3C23.8 25.1 23.8 25.7 23.9 25.1C23.9 24.4 24.2 23.7 24.5 22.7C24.8 21.8 25.2 20.6 25.6 19.3L31.5 0H38.2Z" fill="#0A42A5"/>
</svg>
